<?xml version="1.0" encoding="UTF-8"?>
<svg xmlns="http://www.w3.org/2000/svg" version="1.1" viewBox="0 0 1280 300">
  <defs>
    <style>
      .cls-1 {
        fill-rule: evenodd;
      }

      .cls-1, .cls-2, .cls-3 {
        fill: none;
        stroke: #51b6ff;
        stroke-miterlimit: 10;
      }

      .cls-4 {
        fill: #51b6ff;
      }

      .cls-3 {
        stroke-width: 1.5px;
      }
    </style>
  </defs>
  <!-- Generator: Adobe Illustrator 28.7.1, SVG Export Plug-In . SVG Version: 1.2.0 Build 142)  -->
  <g>
    <g id="Layer_1">
      <g>
        <polygon class="cls-2" points="392.8 157.6 392.8 156.7 391.5 156.7 391.5 157.6 391.8 158 392.6 158 392.8 157.6"/>
        <polygon class="cls-2" points="392 109.4 392.2 109.4 392.3 109.4 392.4 109.1 392.4 107.5 391.9 107.5 391.9 109.1 392 109.4"/>
        <polygon class="cls-2" points="392 160.5 392.2 160.5 392.3 160.5 392.4 160.2 392.4 158.6 391.9 158.6 391.9 160.2 392 160.5"/>
        <path class="cls-2" d="M397.8,110h0c-.1,0-.2,0-.3-.2l-.2-.5s0,0,0-.1v-1.9l-.4-.5c0,0,0-.1,0-.2v-1h-3.4v1c0,0,0,.1,0,.2l-.4.5v1.9s0,0,0,.1l-.2.5c0,.1-.2.2-.3.2h0v46.1h5.4v-46.1Z"/>
        <polygon class="cls-2" points="397.9 107.5 397.9 109.1 398 109.4 398.1 109.4 398.3 109.4 398.4 109.1 398.4 107.5 398.1 107.5 397.9 107.5"/>
        <polygon class="cls-2" points="392.8 106.5 392.8 105.6 391.5 105.6 391.5 106.5 391.8 106.9 392.6 106.9 392.8 106.5"/>
        <path class="cls-2" d="M391.9,110h0c-.1,0-.2,0-.3-.2l-.2-.5s0,0,0-.1v-1.9l-.4-.5c0,0,0-.1,0-.2v-1h-3.4v1c0,0,0,.1,0,.2l-.4.5v1.9s0,0,0,.1l-.2.5c0,.1-.2.2-.3.2h0v46.1h5.4v-46.1ZM389,154.7h-1.2v-1.2h1.2v1.2ZM389,153h-1.2v-1.2h1.2v1.2ZM389,151.4h-1.2v-1.2h1.2v1.2ZM389,149.7h-1.2v-1.2h1.2v1.2ZM389,148.1h-1.2v-1.2h1.2v1.2ZM389,146.4h-1.2v-1.2h1.2v1.2ZM389,144.8h-1.2v-1.2h1.2v1.2ZM389,143.2h-1.2v-1.2h1.2v1.2ZM389,141.5h-1.2v-1.2h1.2v1.2ZM389,139.9h-1.2v-1.2h1.2v1.2ZM389,138.2h-1.2v-1.2h1.2v1.2ZM389,136.6h-1.2v-1.2h1.2v1.2ZM389,135h-1.2v-1.2h1.2v1.2ZM389,133.3h-1.2v-1.2h1.2v1.2ZM389,131.7h-1.2v-1.2h1.2v1.2ZM389,130h-1.2v-1.2h1.2v1.2ZM389,128.4h-1.2v-1.2h1.2v1.2ZM389,126.8h-1.2v-1.2h1.2v1.2ZM389,125.1h-1.2v-1.2h1.2v1.2ZM389,123.5h-1.2v-1.2h1.2v1.2ZM389,121.8h-1.2v-1.2h1.2v1.2ZM389,120.2h-1.2v-1.2h1.2v1.2ZM389,118.6h-1.2v-1.2h1.2v1.2ZM389,116.9h-1.2v-1.2h1.2v1.2ZM389,115.3h-1.2v-1.2h1.2v1.2ZM389,113.6h-1.2v-1.2h1.2v1.2ZM389,112h-1.2v-1.2h1.2v1.2ZM390.7,154.7h-1.2v-1.2h1.2v1.2ZM390.7,153h-1.2v-1.2h1.2v1.2ZM390.7,151.4h-1.2v-1.2h1.2v1.2ZM390.7,149.7h-1.2v-1.2h1.2v1.2ZM390.7,148.1h-1.2v-1.2h1.2v1.2ZM390.7,146.4h-1.2v-1.2h1.2v1.2ZM390.7,144.8h-1.2v-1.2h1.2v1.2ZM390.7,143.2h-1.2v-1.2h1.2v1.2ZM390.7,141.5h-1.2v-1.2h1.2v1.2ZM390.7,139.9h-1.2v-1.2h1.2v1.2ZM390.7,138.2h-1.2v-1.2h1.2v1.2ZM390.7,136.6h-1.2v-1.2h1.2v1.2ZM390.7,135h-1.2v-1.2h1.2v1.2ZM390.7,133.3h-1.2v-1.2h1.2v1.2ZM390.7,131.7h-1.2v-1.2h1.2v1.2ZM390.7,130h-1.2v-1.2h1.2v1.2ZM390.7,128.4h-1.2v-1.2h1.2v1.2ZM390.7,126.8h-1.2v-1.2h1.2v1.2ZM390.7,125.1h-1.2v-1.2h1.2v1.2ZM390.7,123.5h-1.2v-1.2h1.2v1.2ZM390.7,121.8h-1.2v-1.2h1.2v1.2ZM390.7,120.2h-1.2v-1.2h1.2v1.2ZM390.7,118.6h-1.2v-1.2h1.2v1.2ZM390.7,116.9h-1.2v-1.2h1.2v1.2ZM390.7,115.3h-1.2v-1.2h1.2v1.2ZM390.7,113.6h-1.2v-1.2h1.2v1.2ZM390.7,112h-1.2v-1.2h1.2v1.2Z"/>
        <polygon class="cls-2" points="380.9 157.6 380.9 156.7 379.5 156.7 379.5 157.6 379.8 158 380.6 158 380.9 157.6"/>
        <polygon class="cls-2" points="386.9 106.5 386.9 105.6 385.5 105.6 385.5 106.5 385.8 106.9 386.6 106.9 386.9 106.5"/>
        <polygon class="cls-2" points="386.7 95.5 386.7 92.9 385.7 92.9 385.7 95.5 385.9 96 386.2 96 386.5 96 386.7 95.5"/>
        <polygon class="cls-2" points="380.2 109.4 380.3 109.4 380.4 109.1 380.4 107.5 379.9 107.5 379.9 109.1 380.1 109.4 380.2 109.4"/>
        <polygon class="cls-2" points="392.6 95.5 392.6 92.9 391.7 92.9 391.7 95.5 391.9 96 392.2 96 392.4 96 392.6 95.5"/>
        <polygon class="cls-2" points="386.9 157.6 386.9 156.7 385.5 156.7 385.5 157.6 385.8 158 386.6 158 386.9 157.6"/>
        <polygon class="cls-2" points="397.9 158.6 397.9 160.2 398 160.5 398.1 160.5 398.3 160.5 398.4 160.2 398.4 158.6 398.1 158.6 397.9 158.6"/>
        <polygon class="cls-2" points="386 160.5 386.2 160.5 386.3 160.5 386.4 160.2 386.4 158.6 385.9 158.6 385.9 160.2 386 160.5"/>
        <polygon class="cls-2" points="386 109.4 386.2 109.4 386.3 109.4 386.4 109.1 386.4 107.5 385.9 107.5 385.9 109.1 386 109.4"/>
        <path class="cls-2" d="M381.5,105.6v1c0,0,0,.1,0,.2l-.4.5v1.9s0,0,0,.1l-.2.5c0,.1-.2.2-.3.2h0v46.1h5.4v-46.1h0c-.1,0-.2,0-.3-.2l-.2-.5s0,0,0-.1v-1.9l-.4-.5c0,0,0-.1,0-.2v-1h-3.4Z"/>
        <polygon class="cls-2" points="373.5 157.6 373.8 158 374.6 158 374.9 157.6 374.9 156.7 373.5 156.7 373.5 157.6"/>
        <path class="cls-2" d="M373.9,110h0c-.1,0-.2,0-.3-.2l-.2-.5s0,0,0-.1v-1.9l-.4-.5c0,0,0-.1,0-.2v-1h-1.1v50.5h2v-46.1Z"/>
        <polygon class="cls-2" points="374.4 109.4 374.5 109.1 374.5 107.5 374 107.5 374 109.1 374.1 109.4 374.2 109.4 374.4 109.4"/>
        <polygon class="cls-2" points="374.2 160.5 374.4 160.5 374.5 160.2 374.5 158.6 374 158.6 374 160.2 374.1 160.5 374.2 160.5"/>
        <polygon class="cls-2" points="380.9 208.7 380.9 207.8 379.5 207.8 379.5 208.7 379.8 209.1 380.6 209.1 380.9 208.7"/>
        <polygon class="cls-2" points="386 211.6 386.2 211.6 386.3 211.6 386.4 211.3 386.4 209.7 385.9 209.7 385.9 211.3 386 211.6"/>
        <polygon class="cls-2" points="380.1 211.6 380.2 211.6 380.3 211.6 380.4 211.3 380.4 209.7 379.9 209.7 379.9 211.3 380.1 211.6"/>
        <path class="cls-2" d="M385.9,161.1h0c-.1,0-.2,0-.3-.2l-.2-.5s0,0,0-.1v-1.9l-.4-.5c0,0,0-.1,0-.2v-1h-3.4v1c0,0,0,.1,0,.2l-.4.5v1.9s0,0,0,.1l-.2.5c0,.1-.2.2-.3.2h0v46.1h5.4v-46.1Z"/>
        <polygon class="cls-2" points="397 90.5 397 91.7 397.5 92.4 398.1 92.4 398.8 92.4 399.3 91.7 399.3 90.5 398.1 90.5 397 90.5"/>
        <polygon class="cls-2" points="374.6 106.9 374.9 106.5 374.9 105.6 373.5 105.6 373.5 106.5 373.8 106.9 374.6 106.9"/>
        <polygon class="cls-2" points="385.1 91.7 385.5 92.4 386.8 92.4 387.3 91.7 387.3 90.5 385.1 90.5 385.1 91.7"/>
        <path class="cls-2" d="M387.9,90.5v1.4c0,0,0,.1,0,.2l-.6.7v2.8s0,0,0,.1l-.3.8c0,.1-.2.2-.3.2h-.2v8.5h5.4v-8.5h-.2c-.1,0-.2,0-.3-.2l-.3-.8s0,0,0-.1v-2.8l-.6-.7c0,0,0-.1,0-.2v-1.4h-2.6Z"/>
        <path class="cls-2" d="M375.5,106.6c0,0,0,.1,0,.2l-.4.5v1.9s0,0,0,.1l-.2.5c0,.1-.2.2-.3.2h0v46.1h5.4v-46.1h0c-.1,0-.2,0-.3-.2l-.2-.5s0,0,0-.1v-1.9l-.4-.5c0,0,0-.1,0-.2v-1h-3.4v1ZM377.5,110.8h1.2v1.2h-1.2v-1.2ZM377.5,112.4h1.2v1.2h-1.2v-1.2ZM377.5,114.1h1.2v1.2h-1.2v-1.2ZM377.5,115.7h1.2v1.2h-1.2v-1.2ZM377.5,117.4h1.2v1.2h-1.2v-1.2ZM377.5,119h1.2v1.2h-1.2v-1.2ZM377.5,120.6h1.2v1.2h-1.2v-1.2ZM377.5,122.3h1.2v1.2h-1.2v-1.2ZM377.5,123.9h1.2v1.2h-1.2v-1.2ZM377.5,125.6h1.2v1.2h-1.2v-1.2ZM377.5,127.2h1.2v1.2h-1.2v-1.2ZM377.5,128.8h1.2v1.2h-1.2v-1.2ZM377.5,130.5h1.2v1.2h-1.2v-1.2ZM377.5,132.1h1.2v1.2h-1.2v-1.2ZM377.5,133.8h1.2v1.2h-1.2v-1.2ZM377.5,135.4h1.2v1.2h-1.2v-1.2ZM377.5,137h1.2v1.2h-1.2v-1.2ZM377.5,138.7h1.2v1.2h-1.2v-1.2ZM377.5,140.3h1.2v1.2h-1.2v-1.2ZM377.5,142h1.2v1.2h-1.2v-1.2ZM377.5,143.6h1.2v1.2h-1.2v-1.2ZM377.5,145.2h1.2v1.2h-1.2v-1.2ZM377.5,146.9h1.2v1.2h-1.2v-1.2ZM377.5,148.5h1.2v1.2h-1.2v-1.2ZM377.5,150.2h1.2v1.2h-1.2v-1.2ZM377.5,151.8h1.2v1.2h-1.2v-1.2ZM377.5,153.4h1.2v1.2h-1.2v-1.2ZM375.8,110.8h1.2v1.2h-1.2v-1.2ZM375.8,112.4h1.2v1.2h-1.2v-1.2ZM375.8,114.1h1.2v1.2h-1.2v-1.2ZM375.8,115.7h1.2v1.2h-1.2v-1.2ZM375.8,117.4h1.2v1.2h-1.2v-1.2ZM375.8,119h1.2v1.2h-1.2v-1.2ZM375.8,120.6h1.2v1.2h-1.2v-1.2ZM375.8,122.3h1.2v1.2h-1.2v-1.2ZM375.8,123.9h1.2v1.2h-1.2v-1.2ZM375.8,125.6h1.2v1.2h-1.2v-1.2ZM375.8,127.2h1.2v1.2h-1.2v-1.2ZM375.8,128.8h1.2v1.2h-1.2v-1.2ZM375.8,130.5h1.2v1.2h-1.2v-1.2ZM375.8,132.1h1.2v1.2h-1.2v-1.2ZM375.8,133.8h1.2v1.2h-1.2v-1.2ZM375.8,135.4h1.2v1.2h-1.2v-1.2ZM375.8,137h1.2v1.2h-1.2v-1.2ZM375.8,138.7h1.2v1.2h-1.2v-1.2ZM375.8,140.3h1.2v1.2h-1.2v-1.2ZM375.8,142h1.2v1.2h-1.2v-1.2ZM375.8,143.6h1.2v1.2h-1.2v-1.2ZM375.8,145.2h1.2v1.2h-1.2v-1.2ZM375.8,146.9h1.2v1.2h-1.2v-1.2ZM375.8,148.5h1.2v1.2h-1.2v-1.2ZM375.8,150.2h1.2v1.2h-1.2v-1.2ZM375.8,151.8h1.2v1.2h-1.2v-1.2ZM375.8,153.4h1.2v1.2h-1.2v-1.2Z"/>
        <path class="cls-2" d="M393.9,90.5v1.4c0,0,0,.1,0,.2l-.6.7v2.8s0,0,0,.1l-.3.8c0,.1-.2.2-.3.2h-.2v8.5h5.4v-8.5h-.2c-.1,0-.2,0-.3-.2l-.3-.8s0,0,0-.1v-2.8l-.6-.7c0,0,0-.1,0-.2v-1.4h-2.6Z"/>
        <polygon class="cls-2" points="391 91.7 391.5 92.4 392.8 92.4 393.3 91.7 393.3 90.5 391 90.5 391 91.7"/>
        <polygon class="cls-2" points="392 211.6 392.2 211.6 392.3 211.6 392.4 211.3 392.4 209.7 391.9 209.7 391.9 211.3 392 211.6"/>
        <path class="cls-2" d="M391.9,161.1h0c-.1,0-.2,0-.3-.2l-.2-.5s0,0,0-.1v-1.9l-.4-.5c0,0,0-.1,0-.2v-1h-3.4v1c0,0,0,.1,0,.2l-.4.5v1.9s0,0,0,.1l-.2.5c0,.1-.2.2-.3.2h0v46.1h5.4v-46.1Z"/>
        <polygon class="cls-2" points="392.8 208.7 392.8 207.8 391.5 207.8 391.5 208.7 391.8 209.1 392.6 209.1 392.8 208.7"/>
        <polygon class="cls-2" points="379.5 106.5 379.8 106.9 380.6 106.9 380.9 106.5 380.9 105.6 379.5 105.6 379.5 106.5"/>
        <path class="cls-2" d="M385.9,212.2h0c-.1,0-.2,0-.3-.2l-.2-.5s0,0,0-.1v-1.9l-.4-.5c0,0,0-.1,0-.2v-1h-3.4v1c0,0,0,.1,0,.2l-.4.5v1.9s0,0,0,.1l-.2.5c0,.1-.2.2-.3.2h0v46.1h5.4v-46.1ZM382.8,256.8h-1.2v-1.2h1.2v1.2ZM382.8,255.2h-1.2v-1.2h1.2v1.2ZM382.8,253.5h-1.2v-1.2h1.2v1.2ZM382.8,251.9h-1.2v-1.2h1.2v1.2ZM382.8,250.3h-1.2v-1.2h1.2v1.2ZM382.8,248.6h-1.2v-1.2h1.2v1.2ZM382.8,247h-1.2v-1.2h1.2v1.2ZM382.8,245.3h-1.2v-1.2h1.2v1.2ZM382.8,243.7h-1.2v-1.2h1.2v1.2ZM382.8,242.1h-1.2v-1.2h1.2v1.2ZM382.8,240.4h-1.2v-1.2h1.2v1.2ZM382.8,238.8h-1.2v-1.2h1.2v1.2ZM382.8,237.1h-1.2v-1.2h1.2v1.2ZM382.8,235.5h-1.2v-1.2h1.2v1.2ZM382.8,233.9h-1.2v-1.2h1.2v1.2ZM382.8,232.2h-1.2v-1.2h1.2v1.2ZM382.8,230.6h-1.2v-1.2h1.2v1.2ZM382.8,228.9h-1.2v-1.2h1.2v1.2ZM382.8,227.3h-1.2v-1.2h1.2v1.2ZM382.8,225.6h-1.2v-1.2h1.2v1.2ZM382.8,224h-1.2v-1.2h1.2v1.2ZM382.8,222.4h-1.2v-1.2h1.2v1.2ZM382.8,220.7h-1.2v-1.2h1.2v1.2ZM382.8,219.1h-1.2v-1.2h1.2v1.2ZM382.8,217.4h-1.2v-1.2h1.2v1.2ZM382.8,215.8h-1.2v-1.2h1.2v1.2ZM382.8,214.2h-1.2v-1.2h1.2v1.2ZM384.5,256.8h-1.2v-1.2h1.2v1.2ZM384.5,255.2h-1.2v-1.2h1.2v1.2ZM384.5,253.5h-1.2v-1.2h1.2v1.2ZM384.5,251.9h-1.2v-1.2h1.2v1.2ZM384.5,250.3h-1.2v-1.2h1.2v1.2ZM384.5,248.6h-1.2v-1.2h1.2v1.2ZM384.5,247h-1.2v-1.2h1.2v1.2ZM384.5,245.3h-1.2v-1.2h1.2v1.2ZM384.5,243.7h-1.2v-1.2h1.2v1.2ZM384.5,242.1h-1.2v-1.2h1.2v1.2ZM384.5,240.4h-1.2v-1.2h1.2v1.2ZM384.5,238.8h-1.2v-1.2h1.2v1.2ZM384.5,237.1h-1.2v-1.2h1.2v1.2ZM384.5,235.5h-1.2v-1.2h1.2v1.2ZM384.5,233.9h-1.2v-1.2h1.2v1.2ZM384.5,232.2h-1.2v-1.2h1.2v1.2ZM384.5,230.6h-1.2v-1.2h1.2v1.2ZM384.5,228.9h-1.2v-1.2h1.2v1.2ZM384.5,227.3h-1.2v-1.2h1.2v1.2ZM384.5,225.6h-1.2v-1.2h1.2v1.2ZM384.5,224h-1.2v-1.2h1.2v1.2ZM384.5,222.4h-1.2v-1.2h1.2v1.2ZM384.5,220.7h-1.2v-1.2h1.2v1.2ZM384.5,219.1h-1.2v-1.2h1.2v1.2ZM384.5,217.4h-1.2v-1.2h1.2v1.2ZM384.5,215.8h-1.2v-1.2h1.2v1.2ZM384.5,214.2h-1.2v-1.2h1.2v1.2Z"/>
        <path class="cls-2" d="M371.9,274.5v23.4h3.3v-13h4.9v13h1.9v-13h4.9v13h1.9v-13h4.9v13h1.9v-13h5.2v13h1.9v-13h4.9v13h1.9v-13h4.9v13h1.9v-13h4.9v13h3.3v-23.4h-52.5ZM380.1,283.9h-4.9v-6.3h4.9v6.3ZM386.9,283.9h-4.9v-6.3h4.9v6.3ZM393.6,283.9h-4.9v-6.3h4.9v6.3ZM416.2,277.6h4.9v6.3h-4.9v-6.3ZM409.4,277.6h4.9v6.3h-4.9v-6.3ZM402.6,277.6h4.9v6.3h-4.9v-6.3ZM400.7,283.9h-5.2v-6.3h5.2v6.3Z"/>
        <polygon class="cls-2" points="378.9 79.9 374.9 79.9 374.9 81.6 374.9 83.1 378.9 83.1 378.9 79.9"/>
        <path class="cls-2" d="M392.5,52.1s.1,0,.2,0h1.4c0-1,0-4.1,1.2-5.7h-2.3c-3.5,2.5-2.9,6-2.6,7.2l2.1-1.4Z"/>
        <polygon class="cls-2" points="371.9 266.4 371.9 273.9 373.8 273.9 374.5 272.3 374.5 269.3 375.8 269.3 377.1 269.3 377.1 272.3 377.8 273.9 378.2 273.9 378.9 272.3 378.9 269.3 380.2 269.3 381.5 269.3 381.5 272.3 382.2 273.9 382.6 273.9 383.3 272.3 383.3 269.3 384.6 269.3 385.8 269.3 385.8 272.3 386.5 273.9 387 273.9 387.7 272.3 387.7 269.3 389 269.3 390.2 269.3 390.2 272.3 390.9 273.9 391.4 273.9 392.1 272.3 392.1 269.3 393.4 269.3 394.6 269.3 394.6 272.3 395.3 273.9 395.8 273.9 396.5 272.3 396.5 269.3 397.8 269.3 398.1 269.3 398.5 269.3 399.8 269.3 399.8 272.3 400.5 273.9 400.9 273.9 401.6 272.3 401.6 269.3 402.9 269.3 404.2 269.3 404.2 272.3 404.9 273.9 405.3 273.9 406 272.3 406 269.3 407.3 269.3 408.6 269.3 408.6 272.3 409.3 273.9 409.7 273.9 410.4 272.3 410.4 269.3 411.7 269.3 412.9 269.3 412.9 272.3 413.6 273.9 414.1 273.9 414.8 272.3 414.8 269.3 416.1 269.3 417.3 269.3 417.3 272.3 418 273.9 418.5 273.9 419.2 272.3 419.2 269.3 420.5 269.3 421.7 269.3 421.7 272.3 422.4 273.9 424.4 273.9 424.4 266.4 398.1 266.4 371.9 266.4"/>
        <path class="cls-2" d="M394.7,52h6.8c0-1,0-4.5-1.4-5.7h-4c-1.4,1.3-1.4,4.7-1.4,5.7Z"/>
        <polygon class="cls-2" points="393.2 45.7 398.1 45.7 403.1 45.7 403.1 43.1 398.1 43.1 393.2 43.1 393.2 45.7"/>
        <path class="cls-2" d="M393.7,54.3h8.8c0,0,.1,0,.2,0l7.4,4.8v-1.8c0,0-.1-.1-.1-.2s0,0,0-.1l-6.5-4.4h-10.7l-6.5,4.4s0,0,0,.1c0,.1,0,.2-.1.2v1.8l7.4-4.8s.1,0,.2,0Z"/>
        <polygon class="cls-2" points="378.9 79 378.6 79 378.6 78.6 378 78.6 378.6 78 378.6 77 377.3 76.5 376.8 74.5 376.3 76.5 374.9 77 374.9 78 375.5 78.6 374.9 78.6 374.9 79.3 378.9 79.3 378.9 79"/>
        <path class="cls-2" d="M373.9,212.2h0c-.1,0-.2,0-.3-.2l-.2-.5s0,0,0-.1v-1.9l-.4-.5c0,0,0-.1,0-.2v-1h-1.1v50.5h2v-46.1Z"/>
        <path class="cls-2" d="M396.6,24.1l-.3,1.1v2.9h3.6v-2.9c0,0-.2-1.1-.2-1.1,2.3-.7,4-2.8,4-5.3s-.6-2.8-1.5-3.8c.3.6.5,1.3.5,2.1,0,2.3-1.7,4.2-3.9,4.5h-1.2c-2.2-.3-3.9-2.2-3.9-4.5s.2-1.4.5-2.1c-.9,1-1.5,2.3-1.5,3.8,0,2.5,1.7,4.6,4,5.3Z"/>
        <polygon class="cls-2" points="371.9 258.9 371.9 265.8 374.1 265.8 374.1 264.3 374.7 263.7 374.7 261.4 375.8 260.4 376.9 261.4 376.9 263.7 377.5 264.3 377.5 265.8 378.6 265.8 378.6 264.3 379.2 263.7 379.2 261.4 380.3 260.4 381.4 261.4 381.4 263.7 382 264.3 382 265.8 383.1 265.8 383.1 264.3 383.7 263.7 383.7 261.4 384.7 260.4 385.8 261.4 385.8 263.7 386.4 264.3 386.4 265.8 387.5 265.8 387.5 264.3 388.1 263.7 388.1 261.4 389.2 260.4 390.3 261.4 390.3 263.7 390.9 264.3 390.9 265.8 392 265.8 392 264.3 392.6 263.7 392.6 261.4 393.7 260.4 394.8 261.4 394.8 263.7 395.4 264.3 395.4 265.8 396.5 265.8 396.5 264.3 397.1 263.7 397.1 261.4 398.1 260.4 399.2 261.4 399.2 263.7 399.8 264.3 399.8 265.8 400.9 265.8 400.9 264.3 401.5 263.7 401.5 261.4 402.6 260.4 403.7 261.4 403.7 263.7 404.3 264.3 404.3 265.8 405.4 265.8 405.4 264.3 406 263.7 406 261.4 407 260.4 408.1 261.4 408.1 263.7 408.7 264.3 408.7 265.8 409.8 265.8 409.8 264.3 410.4 263.7 410.4 261.4 411.5 260.4 412.6 261.4 412.6 263.7 413.2 264.3 413.2 265.8 414.3 265.8 414.3 264.3 414.9 263.7 414.9 261.4 416 260.4 417.1 261.4 417.1 263.7 417.7 264.3 417.7 265.8 418.8 265.8 418.8 264.3 419.4 263.7 419.4 261.4 420.5 260.4 421.5 261.4 421.5 263.7 422.1 264.3 422.1 265.8 424.4 265.8 424.4 258.9 398.1 258.9 371.9 258.9"/>
        <polygon class="cls-2" points="385 57.4 384.2 57.4 384.2 57.4 381 57.4 381 57.4 380.2 57.4 380.2 59.5 385 59.5 385 57.4"/>
        <polygon class="cls-2" points="384.9 56.8 385 56.6 385 55.3 383.3 54.6 382.6 52 381.9 54.6 380.2 55.3 380.2 56.6 380.3 56.8 384.9 56.8"/>
        <rect class="cls-2" x="379.5" y="60" width="6.1" height="19.3"/>
        <rect class="cls-2" x="373.6" y="83.7" width="4.5" height="6.2"/>
        <polygon class="cls-2" points="380.1 160.5 380.2 160.5 380.3 160.5 380.4 160.2 380.4 158.6 379.9 158.6 379.9 160.2 380.1 160.5"/>
        <polygon class="cls-2" points="379.1 91.7 379.6 92.4 380.8 92.4 381.3 91.7 381.3 90.5 379.1 90.5 379.1 91.7"/>
        <path class="cls-2" d="M391.9,212.2h0c-.1,0-.2,0-.3-.2l-.2-.5s0,0,0-.1v-1.9l-.4-.5c0,0,0-.1,0-.2v-1h-3.4v1c0,0,0,.1,0,.2l-.4.5v1.9s0,0,0,.1l-.2.5c0,.1-.2.2-.3.2h0v46.1h5.4v-46.1Z"/>
        <path class="cls-2" d="M375.5,156.7v1c0,0,0,.1,0,.2l-.4.5v1.9s0,0,0,.1l-.2.5c0,.1-.2.2-.3.2h0v46.1h5.4v-46.1h0c-.1,0-.2,0-.3-.2l-.2-.5s0,0,0-.1v-1.9l-.4-.5c0,0,0-.1,0-.2v-1h-3.4Z"/>
        <polygon class="cls-2" points="386.9 208.7 386.9 207.8 385.5 207.8 385.5 208.7 385.8 209.1 386.6 209.1 386.9 208.7"/>
        <path class="cls-2" d="M379.9,212.2h0c-.1,0-.2,0-.3-.2l-.2-.5s0,0,0-.1v-1.9l-.4-.5c0,0,0-.1,0-.2v-1h-3.4v1c0,0,0,.1,0,.2l-.4.5v1.9s0,0,0,.1l-.2.5c0,.1-.2.2-.3.2h0v46.1h5.4v-46.1Z"/>
        <polygon class="cls-2" points="378.7 83.7 378.7 89.9 398.1 89.9 417.6 89.9 417.6 83.7 398.1 83.7 378.7 83.7"/>
        <path class="cls-2" d="M381.9,90.5v1.4c0,0,0,.1,0,.2l-.6.7v2.8s0,0,0,.1l-.3.8c0,.1-.2.2-.3.2h-.2v8.5h5.4v-8.5h-.2c-.1,0-.2,0-.3-.2l-.3-.8s0,0,0-.1v-2.8l-.6-.7c0,0,0-.1,0-.2v-1.4h-2.6Z"/>
        <polygon class="cls-2" points="397.9 209.7 397.9 211.3 398 211.6 398.1 211.6 398.3 211.6 398.4 211.3 398.4 209.7 398.1 209.7 397.9 209.7"/>
        <path class="cls-2" d="M373.9,161.1h0c-.1,0-.2,0-.3-.2l-.2-.5s0,0,0-.1v-1.9l-.4-.5c0,0,0-.1,0-.2v-1h-1.1v50.5h2v-46.1Z"/>
        <path class="cls-2" d="M376.3,90.5v14.6h3.6v-8.5h-.2c-.1,0-.2,0-.3-.2l-.3-.8s0,0,0-.1v-2.8l-.6-.7c0,0,0-.1,0-.2v-1.4h-2.2Z"/>
        <path class="cls-2" d="M397.8,161.1h0c-.1,0-.2,0-.3-.2l-.2-.5s0,0,0-.1v-1.9l-.4-.5c0,0,0-.1,0-.2v-1h-3.4v1c0,0,0,.1,0,.2l-.4.5v1.9s0,0,0,.1l-.2.5c0,.1-.2.2-.3.2h0v46.1h5.4v-46.1Z"/>
        <path class="cls-2" d="M397.8,212.2h0c-.1,0-.2,0-.3-.2l-.2-.5s0,0,0-.1v-1.9l-.4-.5c0,0,0-.1,0-.2v-1h-3.4v1c0,0,0,.1,0,.2l-.4.5v1.9s0,0,0,.1l-.2.5c0,.1-.2.2-.3.2h0v46.1h5.4v-46.1ZM395,256.8h-1.2v-1.2h1.2v1.2ZM395,255.2h-1.2v-1.2h1.2v1.2ZM395,253.5h-1.2v-1.2h1.2v1.2ZM395,251.9h-1.2v-1.2h1.2v1.2ZM395,250.3h-1.2v-1.2h1.2v1.2ZM395,248.6h-1.2v-1.2h1.2v1.2ZM395,247h-1.2v-1.2h1.2v1.2ZM395,245.3h-1.2v-1.2h1.2v1.2ZM395,243.7h-1.2v-1.2h1.2v1.2ZM395,242.1h-1.2v-1.2h1.2v1.2ZM395,240.4h-1.2v-1.2h1.2v1.2ZM395,238.8h-1.2v-1.2h1.2v1.2ZM395,237.1h-1.2v-1.2h1.2v1.2ZM395,235.5h-1.2v-1.2h1.2v1.2ZM395,233.9h-1.2v-1.2h1.2v1.2ZM395,232.2h-1.2v-1.2h1.2v1.2ZM395,230.6h-1.2v-1.2h1.2v1.2ZM395,228.9h-1.2v-1.2h1.2v1.2ZM395,227.3h-1.2v-1.2h1.2v1.2ZM395,225.6h-1.2v-1.2h1.2v1.2ZM395,224h-1.2v-1.2h1.2v1.2ZM395,222.4h-1.2v-1.2h1.2v1.2ZM395,220.7h-1.2v-1.2h1.2v1.2ZM395,219.1h-1.2v-1.2h1.2v1.2ZM395,217.4h-1.2v-1.2h1.2v1.2ZM395,215.8h-1.2v-1.2h1.2v1.2ZM395,214.2h-1.2v-1.2h1.2v1.2ZM396.7,256.8h-1.2v-1.2h1.2v1.2ZM396.7,255.2h-1.2v-1.2h1.2v1.2ZM396.7,253.5h-1.2v-1.2h1.2v1.2ZM396.7,251.9h-1.2v-1.2h1.2v1.2ZM396.7,250.3h-1.2v-1.2h1.2v1.2ZM396.7,248.6h-1.2v-1.2h1.2v1.2ZM396.7,247h-1.2v-1.2h1.2v1.2ZM396.7,245.3h-1.2v-1.2h1.2v1.2ZM396.7,243.7h-1.2v-1.2h1.2v1.2ZM396.7,242.1h-1.2v-1.2h1.2v1.2ZM396.7,240.4h-1.2v-1.2h1.2v1.2ZM396.7,238.8h-1.2v-1.2h1.2v1.2ZM396.7,237.1h-1.2v-1.2h1.2v1.2ZM396.7,235.5h-1.2v-1.2h1.2v1.2ZM396.7,233.9h-1.2v-1.2h1.2v1.2ZM396.7,232.2h-1.2v-1.2h1.2v1.2ZM396.7,230.6h-1.2v-1.2h1.2v1.2ZM396.7,228.9h-1.2v-1.2h1.2v1.2ZM396.7,227.3h-1.2v-1.2h1.2v1.2ZM396.7,225.6h-1.2v-1.2h1.2v1.2ZM396.7,224h-1.2v-1.2h1.2v1.2ZM396.7,222.4h-1.2v-1.2h1.2v1.2ZM396.7,220.7h-1.2v-1.2h1.2v1.2ZM396.7,219.1h-1.2v-1.2h1.2v1.2ZM396.7,217.4h-1.2v-1.2h1.2v1.2ZM396.7,215.8h-1.2v-1.2h1.2v1.2ZM396.7,214.2h-1.2v-1.2h1.2v1.2Z"/>
        <polygon class="cls-2" points="374.1 211.6 374.2 211.6 374.4 211.6 374.5 211.3 374.5 209.7 374 209.7 374 211.3 374.1 211.6"/>
        <polygon class="cls-2" points="374.9 208.7 374.9 207.8 373.5 207.8 373.5 208.7 373.8 209.1 374.6 209.1 374.9 208.7"/>
        <polygon class="cls-2" points="380.2 96 380.5 96 380.7 95.5 380.7 92.9 379.7 92.9 379.7 95.5 379.9 96 380.2 96"/>
        <polygon class="cls-2" points="404.8 157.6 404.8 156.7 403.4 156.7 403.4 157.6 403.7 158 404.5 158 404.8 157.6"/>
        <polygon class="cls-2" points="404 109.4 404.1 109.4 404.3 109.4 404.4 109.1 404.4 107.5 403.9 107.5 403.9 109.1 404 109.4"/>
        <polygon class="cls-2" points="404 160.5 404.1 160.5 404.3 160.5 404.4 160.2 404.4 158.6 403.9 158.6 403.9 160.2 404 160.5"/>
        <path class="cls-2" d="M403.8,110h0c-.1,0-.2,0-.3-.2l-.2-.5s0,0,0-.1v-1.9l-.4-.5c0,0,0-.1,0-.2v-1h-3.4v1c0,0,0,.1,0,.2l-.4.5v1.9s0,0,0,.1l-.2.5c0,.1-.2.2-.3.2h0v46.1h5.4v-46.1ZM400.8,154.7h-1.2v-1.2h1.2v1.2ZM400.8,153h-1.2v-1.2h1.2v1.2ZM400.8,151.4h-1.2v-1.2h1.2v1.2ZM400.8,149.7h-1.2v-1.2h1.2v1.2ZM400.8,148.1h-1.2v-1.2h1.2v1.2ZM400.8,146.4h-1.2v-1.2h1.2v1.2ZM400.8,144.8h-1.2v-1.2h1.2v1.2ZM400.8,143.2h-1.2v-1.2h1.2v1.2ZM400.8,141.5h-1.2v-1.2h1.2v1.2ZM400.8,139.9h-1.2v-1.2h1.2v1.2ZM400.8,138.2h-1.2v-1.2h1.2v1.2ZM400.8,136.6h-1.2v-1.2h1.2v1.2ZM400.8,135h-1.2v-1.2h1.2v1.2ZM400.8,133.3h-1.2v-1.2h1.2v1.2ZM400.8,131.7h-1.2v-1.2h1.2v1.2ZM400.8,130h-1.2v-1.2h1.2v1.2ZM400.8,128.4h-1.2v-1.2h1.2v1.2ZM400.8,126.8h-1.2v-1.2h1.2v1.2ZM400.8,125.1h-1.2v-1.2h1.2v1.2ZM400.8,123.5h-1.2v-1.2h1.2v1.2ZM400.8,121.8h-1.2v-1.2h1.2v1.2ZM400.8,120.2h-1.2v-1.2h1.2v1.2ZM400.8,118.6h-1.2v-1.2h1.2v1.2ZM400.8,116.9h-1.2v-1.2h1.2v1.2ZM400.8,115.3h-1.2v-1.2h1.2v1.2ZM400.8,113.6h-1.2v-1.2h1.2v1.2ZM400.8,112h-1.2v-1.2h1.2v1.2ZM402.5,154.7h-1.2v-1.2h1.2v1.2ZM402.5,153h-1.2v-1.2h1.2v1.2ZM402.5,151.4h-1.2v-1.2h1.2v1.2ZM402.5,149.7h-1.2v-1.2h1.2v1.2ZM402.5,148.1h-1.2v-1.2h1.2v1.2ZM402.5,146.4h-1.2v-1.2h1.2v1.2ZM402.5,144.8h-1.2v-1.2h1.2v1.2ZM402.5,143.2h-1.2v-1.2h1.2v1.2ZM402.5,141.5h-1.2v-1.2h1.2v1.2ZM402.5,139.9h-1.2v-1.2h1.2v1.2ZM402.5,138.2h-1.2v-1.2h1.2v1.2ZM402.5,136.6h-1.2v-1.2h1.2v1.2ZM402.5,135h-1.2v-1.2h1.2v1.2ZM402.5,133.3h-1.2v-1.2h1.2v1.2ZM402.5,131.7h-1.2v-1.2h1.2v1.2ZM402.5,130h-1.2v-1.2h1.2v1.2ZM402.5,128.4h-1.2v-1.2h1.2v1.2ZM402.5,126.8h-1.2v-1.2h1.2v1.2ZM402.5,125.1h-1.2v-1.2h1.2v1.2ZM402.5,123.5h-1.2v-1.2h1.2v1.2ZM402.5,121.8h-1.2v-1.2h1.2v1.2ZM402.5,120.2h-1.2v-1.2h1.2v1.2ZM402.5,118.6h-1.2v-1.2h1.2v1.2ZM402.5,116.9h-1.2v-1.2h1.2v1.2ZM402.5,115.3h-1.2v-1.2h1.2v1.2ZM402.5,113.6h-1.2v-1.2h1.2v1.2ZM402.5,112h-1.2v-1.2h1.2v1.2Z"/>
        <polygon class="cls-2" points="398.8 157.6 398.8 156.7 398.1 156.7 397.4 156.7 397.4 157.6 397.7 158 398.1 158 398.5 158 398.8 157.6"/>
        <polygon class="cls-2" points="398.4 96 398.6 95.5 398.6 92.9 398.1 92.9 397.6 92.9 397.6 95.5 397.8 96 398.1 96 398.4 96"/>
        <polygon class="cls-2" points="398.8 106.5 398.8 105.6 398.1 105.6 397.4 105.6 397.4 106.5 397.7 106.9 398.1 106.9 398.5 106.9 398.8 106.5"/>
        <polygon class="cls-2" points="404.8 106.5 404.8 105.6 403.4 105.6 403.4 106.5 403.7 106.9 404.5 106.9 404.8 106.5"/>
        <path class="cls-2" d="M409.8,110h0c-.1,0-.2,0-.3-.2l-.2-.5s0,0,0-.1v-1.9l-.4-.5c0,0,0-.1,0-.2v-1h-3.4v1c0,0,0,.1,0,.2l-.4.5v1.9s0,0,0,.1l-.2.5c0,.1-.2.2-.3.2h0v46.1h5.4v-46.1Z"/>
        <polygon class="cls-2" points="416.8 157.6 416.8 156.7 415.4 156.7 415.4 157.6 415.7 158 416.5 158 416.8 157.6"/>
        <polygon class="cls-2" points="410.8 106.5 410.8 105.6 409.4 105.6 409.4 106.5 409.7 106.9 410.5 106.9 410.8 106.5"/>
        <polygon class="cls-2" points="410.6 95.5 410.6 92.9 409.6 92.9 409.6 95.5 409.8 96 410.1 96 410.4 96 410.6 95.5"/>
        <polygon class="cls-2" points="415.9 109.4 416.1 109.4 416.2 109.4 416.3 109.1 416.3 107.5 415.8 107.5 415.8 109.1 415.9 109.4"/>
        <polygon class="cls-2" points="404.6 95.5 404.6 92.9 403.6 92.9 403.6 95.5 403.8 96 404.1 96 404.4 96 404.6 95.5"/>
        <polygon class="cls-2" points="410.8 157.6 410.8 156.7 409.4 156.7 409.4 157.6 409.7 158 410.5 158 410.8 157.6"/>
        <polygon class="cls-2" points="410 160.5 410.1 160.5 410.2 160.5 410.3 160.2 410.3 158.6 409.8 158.6 409.8 160.2 410 160.5"/>
        <polygon class="cls-2" points="410 109.4 410.1 109.4 410.2 109.4 410.3 109.1 410.3 107.5 409.8 107.5 409.8 109.1 410 109.4"/>
        <path class="cls-2" d="M415.8,110h0c-.1,0-.2,0-.3-.2l-.2-.5s0,0,0-.1v-1.9l-.4-.5c0,0,0-.1,0-.2v-1h-3.4v1c0,0,0,.1,0,.2l-.4.5v1.9s0,0,0,.1l-.2.5c0,.1-.2.2-.3.2h0v46.1h5.4v-46.1ZM413,154.7h-1.2v-1.2h1.2v1.2ZM413,153h-1.2v-1.2h1.2v1.2ZM413,151.4h-1.2v-1.2h1.2v1.2ZM413,149.7h-1.2v-1.2h1.2v1.2ZM413,148.1h-1.2v-1.2h1.2v1.2ZM413,146.4h-1.2v-1.2h1.2v1.2ZM413,144.8h-1.2v-1.2h1.2v1.2ZM413,143.2h-1.2v-1.2h1.2v1.2ZM413,141.5h-1.2v-1.2h1.2v1.2ZM413,139.9h-1.2v-1.2h1.2v1.2ZM413,138.2h-1.2v-1.2h1.2v1.2ZM413,136.6h-1.2v-1.2h1.2v1.2ZM413,135h-1.2v-1.2h1.2v1.2ZM413,133.3h-1.2v-1.2h1.2v1.2ZM413,131.7h-1.2v-1.2h1.2v1.2ZM413,130h-1.2v-1.2h1.2v1.2ZM413,128.4h-1.2v-1.2h1.2v1.2ZM413,126.8h-1.2v-1.2h1.2v1.2ZM413,125.1h-1.2v-1.2h1.2v1.2ZM413,123.5h-1.2v-1.2h1.2v1.2ZM413,121.8h-1.2v-1.2h1.2v1.2ZM413,120.2h-1.2v-1.2h1.2v1.2ZM413,118.6h-1.2v-1.2h1.2v1.2ZM413,116.9h-1.2v-1.2h1.2v1.2ZM413,115.3h-1.2v-1.2h1.2v1.2ZM413,113.6h-1.2v-1.2h1.2v1.2ZM413,112h-1.2v-1.2h1.2v1.2ZM414.7,154.7h-1.2v-1.2h1.2v1.2ZM414.7,153h-1.2v-1.2h1.2v1.2ZM414.7,151.4h-1.2v-1.2h1.2v1.2ZM414.7,149.7h-1.2v-1.2h1.2v1.2ZM414.7,148.1h-1.2v-1.2h1.2v1.2ZM414.7,146.4h-1.2v-1.2h1.2v1.2ZM414.7,144.8h-1.2v-1.2h1.2v1.2ZM414.7,143.2h-1.2v-1.2h1.2v1.2ZM414.7,141.5h-1.2v-1.2h1.2v1.2ZM414.7,139.9h-1.2v-1.2h1.2v1.2ZM414.7,138.2h-1.2v-1.2h1.2v1.2ZM414.7,136.6h-1.2v-1.2h1.2v1.2ZM414.7,135h-1.2v-1.2h1.2v1.2ZM414.7,133.3h-1.2v-1.2h1.2v1.2ZM414.7,131.7h-1.2v-1.2h1.2v1.2ZM414.7,130h-1.2v-1.2h1.2v1.2ZM414.7,128.4h-1.2v-1.2h1.2v1.2ZM414.7,126.8h-1.2v-1.2h1.2v1.2ZM414.7,125.1h-1.2v-1.2h1.2v1.2ZM414.7,123.5h-1.2v-1.2h1.2v1.2ZM414.7,121.8h-1.2v-1.2h1.2v1.2ZM414.7,120.2h-1.2v-1.2h1.2v1.2ZM414.7,118.6h-1.2v-1.2h1.2v1.2ZM414.7,116.9h-1.2v-1.2h1.2v1.2ZM414.7,115.3h-1.2v-1.2h1.2v1.2ZM414.7,113.6h-1.2v-1.2h1.2v1.2ZM414.7,112h-1.2v-1.2h1.2v1.2Z"/>
        <polygon class="cls-2" points="422.7 157.6 422.7 156.7 421.4 156.7 421.4 157.6 421.7 158 422.4 158 422.7 157.6"/>
        <path class="cls-2" d="M423.3,105.6v1c0,0,0,.1,0,.2l-.4.5v1.9s0,0,0,.1l-.2.5c0,.1-.2.2-.3.2h0v46.1h2v-50.5h-1.1Z"/>
        <polygon class="cls-2" points="421.8 109.1 421.9 109.4 422.1 109.4 422.2 109.4 422.3 109.1 422.3 107.5 421.8 107.5 421.8 109.1"/>
        <polygon class="cls-2" points="421.8 160.2 421.9 160.5 422.1 160.5 422.2 160.5 422.3 160.2 422.3 158.6 421.8 158.6 421.8 160.2"/>
        <polygon class="cls-2" points="416.8 208.7 416.8 207.8 415.4 207.8 415.4 208.7 415.7 209.1 416.5 209.1 416.8 208.7"/>
        <polygon class="cls-2" points="410 211.6 410.1 211.6 410.2 211.6 410.3 211.3 410.3 209.7 409.8 209.7 409.8 211.3 410 211.6"/>
        <polygon class="cls-2" points="415.9 211.6 416.1 211.6 416.2 211.6 416.3 211.3 416.3 209.7 415.8 209.7 415.8 211.3 415.9 211.6"/>
        <path class="cls-2" d="M415.8,161.1h0c-.1,0-.2,0-.3-.2l-.2-.5s0,0,0-.1v-1.9l-.4-.5c0,0,0-.1,0-.2v-1h-3.4v1c0,0,0,.1,0,.2l-.4.5v1.9s0,0,0,.1l-.2.5c0,.1-.2.2-.3.2h0v46.1h5.4v-46.1Z"/>
        <polygon class="cls-2" points="422.7 106.5 422.7 105.6 421.4 105.6 421.4 106.5 421.7 106.9 422.4 106.9 422.7 106.5"/>
        <polygon class="cls-2" points="409 91.7 409.5 92.4 410.7 92.4 411.2 91.7 411.2 90.5 409 90.5 409 91.7"/>
        <path class="cls-2" d="M405.8,90.5v1.4c0,0,0,.1,0,.2l-.6.7v2.8s0,0,0,.1l-.3.8c0,.1-.2.2-.3.2h-.2v8.5h5.4v-8.5h-.2c-.1,0-.2,0-.3-.2l-.3-.8s0,0,0-.1v-2.8l-.6-.7c0,0,0-.1,0-.2v-1.4h-2.6Z"/>
        <path class="cls-2" d="M417.3,105.6v1c0,0,0,.1,0,.2l-.4.5v1.9s0,0,0,.1l-.2.5c0,.1-.2.2-.3.2h0v46.1h5.4v-46.1h0c-.1,0-.2,0-.3-.2l-.2-.5s0,0,0-.1v-1.9l-.4-.5c0,0,0-.1,0-.2v-1h-3.4Z"/>
        <path class="cls-2" d="M399.8,90.5v1.4c0,0,0,.1,0,.2l-.6.7v2.8s0,0,0,.1l-.3.8c0,.1-.2.2-.3.2h-.2v8.5h5.4v-8.5h-.2c-.1,0-.2,0-.3-.2l-.3-.8s0,0,0-.1v-2.8l-.6-.7c0,0,0-.1,0-.2v-1.4h-2.6Z"/>
        <polygon class="cls-2" points="403 91.7 403.5 92.4 404.7 92.4 405.2 91.7 405.2 90.5 403 90.5 403 91.7"/>
        <polygon class="cls-2" points="404 211.6 404.1 211.6 404.3 211.6 404.4 211.3 404.4 209.7 403.9 209.7 403.9 211.3 404 211.6"/>
        <path class="cls-2" d="M409.8,161.1h0c-.1,0-.2,0-.3-.2l-.2-.5s0,0,0-.1v-1.9l-.4-.5c0,0,0-.1,0-.2v-1h-3.4v1c0,0,0,.1,0,.2l-.4.5v1.9s0,0,0,.1l-.2.5c0,.1-.2.2-.3.2h0v46.1h5.4v-46.1Z"/>
        <polygon class="cls-2" points="404.8 208.7 404.8 207.8 403.4 207.8 403.4 208.7 403.7 209.1 404.5 209.1 404.8 208.7"/>
        <polygon class="cls-2" points="416.8 106.5 416.8 105.6 415.4 105.6 415.4 106.5 415.7 106.9 416.5 106.9 416.8 106.5"/>
        <path class="cls-2" d="M415.8,212.2h0c-.1,0-.2,0-.3-.2l-.2-.5s0,0,0-.1v-1.9l-.4-.5c0,0,0-.1,0-.2v-1h-3.4v1c0,0,0,.1,0,.2l-.4.5v1.9s0,0,0,.1l-.2.5c0,.1-.2.2-.3.2h0v46.1h5.4v-46.1Z"/>
        <polygon class="cls-2" points="402.3 28.6 398.1 28.6 394 28.6 394 29.4 398.1 29.4 402.3 29.4 402.3 28.6"/>
        <polygon class="cls-2" points="421.3 81.6 421.3 79.9 417.4 79.9 417.4 83.1 421.3 83.1 421.3 81.6"/>
        <path class="cls-2" d="M400.9,46.3c1.2,1.6,1.3,4.7,1.2,5.7h1.4c0,0,.1,0,.2,0l2.1,1.4c.3-1.2.8-4.7-2.6-7.2h-2.3Z"/>
        <polygon class="cls-2" points="421.3 78.6 420.7 78.6 421.3 78 421.3 77 420 76.5 419.5 74.5 419 76.5 417.7 77 417.7 78 418.3 78.6 417.7 78.6 417.7 79 417.4 79 417.4 79.3 421.3 79.3 421.3 78.6"/>
        <polygon class="cls-2" points="398.1 31.8 395 31.8 394.4 42.5 398.1 42.5 401.9 42.5 401.3 31.8 398.1 31.8"/>
        <path class="cls-2" d="M423.3,208.8c0,0,0,.1,0,.2l-.4.5v1.9s0,0,0,.1l-.2.5c0,.1-.2.2-.3.2h0v46.1h2v-50.5h-1.1v1Z"/>
        <polygon class="cls-2" points="416.1 57.4 415.3 57.4 415.3 57.4 412 57.4 412.1 57.4 411.3 57.4 411.3 59.5 416.1 59.5 416.1 57.4"/>
        <polygon class="cls-2" points="415.9 56.8 416.1 56.6 416.1 55.3 414.3 54.6 413.7 52 413 54.6 411.3 55.3 411.3 56.6 411.4 56.8 415.9 56.8"/>
        <rect class="cls-2" x="410.7" y="60" width="6.1" height="19.3"/>
        <polygon class="cls-2" points="416.8 83.1 416.8 79.9 410.4 79.9 398.1 79.9 385.8 79.9 379.5 79.9 379.5 83.1 398.1 83.1 416.8 83.1"/>
        <rect class="cls-2" x="418.2" y="83.7" width="4.5" height="6.2"/>
        <polygon class="cls-2" points="415.9 160.5 416.1 160.5 416.2 160.5 416.3 160.2 416.3 158.6 415.8 158.6 415.8 160.2 415.9 160.5"/>
        <polygon class="cls-2" points="398.1 30 394 30 394.9 31.3 398.1 31.3 401.4 31.3 402.3 30 398.1 30"/>
        <polygon class="cls-2" points="417.2 91.7 417.2 90.5 415 90.5 415 91.7 415.4 92.4 416.7 92.4 417.2 91.7"/>
        <path class="cls-2" d="M410.1,79.3v-16.7h-24v16.7h24ZM390.5,70.9c0-4.2,3.4-7.6,7.6-7.6s0,0,.1,0c0,0,0,0,.1,0,4.2,0,7.6,3.4,7.6,7.6s-3.4,7.6-7.6,7.6,0,0-.1,0c0,0,0,0-.1,0-4.2,0-7.6-3.4-7.6-7.6Z"/>
        <path class="cls-2" d="M409.8,212.2h0c-.1,0-.2,0-.3-.2l-.2-.5s0,0,0-.1v-1.9l-.4-.5c0,0,0-.1,0-.2v-1h-3.4v1c0,0,0,.1,0,.2l-.4.5v1.9s0,0,0,.1l-.2.5c0,.1-.2.2-.3.2h0v46.1h5.4v-46.1ZM406.8,256.8h-1.2v-1.2h1.2v1.2ZM406.8,255.2h-1.2v-1.2h1.2v1.2ZM406.8,253.5h-1.2v-1.2h1.2v1.2ZM406.8,251.9h-1.2v-1.2h1.2v1.2ZM406.8,250.3h-1.2v-1.2h1.2v1.2ZM406.8,248.6h-1.2v-1.2h1.2v1.2ZM406.8,247h-1.2v-1.2h1.2v1.2ZM406.8,245.3h-1.2v-1.2h1.2v1.2ZM406.8,243.7h-1.2v-1.2h1.2v1.2ZM406.8,242.1h-1.2v-1.2h1.2v1.2ZM406.8,240.4h-1.2v-1.2h1.2v1.2ZM406.8,238.8h-1.2v-1.2h1.2v1.2ZM406.8,237.1h-1.2v-1.2h1.2v1.2ZM406.8,235.5h-1.2v-1.2h1.2v1.2ZM406.8,233.9h-1.2v-1.2h1.2v1.2ZM406.8,232.2h-1.2v-1.2h1.2v1.2ZM406.8,230.6h-1.2v-1.2h1.2v1.2ZM406.8,228.9h-1.2v-1.2h1.2v1.2ZM406.8,227.3h-1.2v-1.2h1.2v1.2ZM406.8,225.6h-1.2v-1.2h1.2v1.2ZM406.8,224h-1.2v-1.2h1.2v1.2ZM406.8,222.4h-1.2v-1.2h1.2v1.2ZM406.8,220.7h-1.2v-1.2h1.2v1.2ZM406.8,219.1h-1.2v-1.2h1.2v1.2ZM406.8,217.4h-1.2v-1.2h1.2v1.2ZM406.8,215.8h-1.2v-1.2h1.2v1.2ZM406.8,214.2h-1.2v-1.2h1.2v1.2ZM408.5,256.8h-1.2v-1.2h1.2v1.2ZM408.5,255.2h-1.2v-1.2h1.2v1.2ZM408.5,253.5h-1.2v-1.2h1.2v1.2ZM408.5,251.9h-1.2v-1.2h1.2v1.2ZM408.5,250.3h-1.2v-1.2h1.2v1.2ZM408.5,248.6h-1.2v-1.2h1.2v1.2ZM408.5,247h-1.2v-1.2h1.2v1.2ZM408.5,245.3h-1.2v-1.2h1.2v1.2ZM408.5,243.7h-1.2v-1.2h1.2v1.2ZM408.5,242.1h-1.2v-1.2h1.2v1.2ZM408.5,240.4h-1.2v-1.2h1.2v1.2ZM408.5,238.8h-1.2v-1.2h1.2v1.2ZM408.5,237.1h-1.2v-1.2h1.2v1.2ZM408.5,235.5h-1.2v-1.2h1.2v1.2ZM408.5,233.9h-1.2v-1.2h1.2v1.2ZM408.5,232.2h-1.2v-1.2h1.2v1.2ZM408.5,230.6h-1.2v-1.2h1.2v1.2ZM408.5,228.9h-1.2v-1.2h1.2v1.2ZM408.5,227.3h-1.2v-1.2h1.2v1.2ZM408.5,225.6h-1.2v-1.2h1.2v1.2ZM408.5,224h-1.2v-1.2h1.2v1.2ZM408.5,222.4h-1.2v-1.2h1.2v1.2ZM408.5,220.7h-1.2v-1.2h1.2v1.2ZM408.5,219.1h-1.2v-1.2h1.2v1.2ZM408.5,217.4h-1.2v-1.2h1.2v1.2ZM408.5,215.8h-1.2v-1.2h1.2v1.2ZM408.5,214.2h-1.2v-1.2h1.2v1.2Z"/>
        <path class="cls-2" d="M421.8,161.1h0c-.1,0-.2,0-.3-.2l-.2-.5s0,0,0-.1v-1.9l-.4-.5c0,0,0-.1,0-.2v-1h-3.4v1c0,0,0,.1,0,.2l-.4.5v1.9s0,0,0,.1l-.2.5c0,.1-.2.2-.3.2h0v46.1h5.4v-46.1Z"/>
        <polygon class="cls-2" points="410.8 208.7 410.8 207.8 409.4 207.8 409.4 208.7 409.7 209.1 410.5 209.1 410.8 208.7"/>
        <path class="cls-2" d="M410.1,62v-2c0,0-.1-.1-.1-.2l-7.5-4.9h-8.7l-7.5,4.9c0,.1,0,.2-.1.2v2h24Z"/>
        <path class="cls-2" d="M421.8,212.2h0c-.1,0-.2,0-.3-.2l-.2-.5s0,0,0-.1v-1.9l-.4-.5c0,0,0-.1,0-.2v-1h-3.4v1c0,0,0,.1,0,.2l-.4.5v1.9s0,0,0,.1l-.2.5c0,.1-.2.2-.3.2h0v46.1h5.4v-46.1ZM418.8,256.8h-1.2v-1.2h1.2v1.2ZM418.8,255.2h-1.2v-1.2h1.2v1.2ZM418.8,253.5h-1.2v-1.2h1.2v1.2ZM418.8,251.9h-1.2v-1.2h1.2v1.2ZM418.8,250.3h-1.2v-1.2h1.2v1.2ZM418.8,248.6h-1.2v-1.2h1.2v1.2ZM418.8,247h-1.2v-1.2h1.2v1.2ZM418.8,245.3h-1.2v-1.2h1.2v1.2ZM418.8,243.7h-1.2v-1.2h1.2v1.2ZM418.8,242.1h-1.2v-1.2h1.2v1.2ZM418.8,240.4h-1.2v-1.2h1.2v1.2ZM418.8,238.8h-1.2v-1.2h1.2v1.2ZM418.8,237.1h-1.2v-1.2h1.2v1.2ZM418.8,235.5h-1.2v-1.2h1.2v1.2ZM418.8,233.9h-1.2v-1.2h1.2v1.2ZM418.8,232.2h-1.2v-1.2h1.2v1.2ZM418.8,230.6h-1.2v-1.2h1.2v1.2ZM418.8,228.9h-1.2v-1.2h1.2v1.2ZM418.8,227.3h-1.2v-1.2h1.2v1.2ZM418.8,225.6h-1.2v-1.2h1.2v1.2ZM418.8,224h-1.2v-1.2h1.2v1.2ZM418.8,222.4h-1.2v-1.2h1.2v1.2ZM418.8,220.7h-1.2v-1.2h1.2v1.2ZM418.8,219.1h-1.2v-1.2h1.2v1.2ZM418.8,217.4h-1.2v-1.2h1.2v1.2ZM418.8,215.8h-1.2v-1.2h1.2v1.2ZM418.8,214.2h-1.2v-1.2h1.2v1.2ZM420.5,256.8h-1.2v-1.2h1.2v1.2ZM420.5,255.2h-1.2v-1.2h1.2v1.2ZM420.5,253.5h-1.2v-1.2h1.2v1.2ZM420.5,251.9h-1.2v-1.2h1.2v1.2ZM420.5,250.3h-1.2v-1.2h1.2v1.2ZM420.5,248.6h-1.2v-1.2h1.2v1.2ZM420.5,247h-1.2v-1.2h1.2v1.2ZM420.5,245.3h-1.2v-1.2h1.2v1.2ZM420.5,243.7h-1.2v-1.2h1.2v1.2ZM420.5,242.1h-1.2v-1.2h1.2v1.2ZM420.5,240.4h-1.2v-1.2h1.2v1.2ZM420.5,238.8h-1.2v-1.2h1.2v1.2ZM420.5,237.1h-1.2v-1.2h1.2v1.2ZM420.5,235.5h-1.2v-1.2h1.2v1.2ZM420.5,233.9h-1.2v-1.2h1.2v1.2ZM420.5,232.2h-1.2v-1.2h1.2v1.2ZM420.5,230.6h-1.2v-1.2h1.2v1.2ZM420.5,228.9h-1.2v-1.2h1.2v1.2ZM420.5,227.3h-1.2v-1.2h1.2v1.2ZM420.5,225.6h-1.2v-1.2h1.2v1.2ZM420.5,224h-1.2v-1.2h1.2v1.2ZM420.5,222.4h-1.2v-1.2h1.2v1.2ZM420.5,220.7h-1.2v-1.2h1.2v1.2ZM420.5,219.1h-1.2v-1.2h1.2v1.2ZM420.5,217.4h-1.2v-1.2h1.2v1.2ZM420.5,215.8h-1.2v-1.2h1.2v1.2ZM420.5,214.2h-1.2v-1.2h1.2v1.2Z"/>
        <path class="cls-2" d="M411.8,90.5v1.4c0,0,0,.1,0,.2l-.6.7v2.8s0,0,0,.1l-.3.8c0,.1-.2.2-.3.2h-.2v8.5h5.4v-8.5h-.2c-.1,0-.2,0-.3-.2l-.3-.8s0,0,0-.1v-2.8l-.6-.7c0,0,0-.1,0-.2v-1.4h-2.6Z"/>
        <path class="cls-2" d="M423.3,157.7c0,0,0,.1,0,.2l-.4.5v1.9s0,0,0,.1l-.2.5c0,.1-.2.2-.3.2h0v46.1h2v-50.5h-1.1v1Z"/>
        <path class="cls-2" d="M417.8,91.8c0,0,0,.1,0,.2l-.6.7v2.8s0,0,0,.1l-.3.8c0,.1-.2.2-.3.2h-.2v8.5h3.6v-14.6h-2.2v1.4Z"/>
        <path class="cls-2" d="M403.8,161.1h0c-.1,0-.2,0-.3-.2l-.2-.5s0,0,0-.1v-1.9l-.4-.5c0,0,0-.1,0-.2v-1h-3.4v1c0,0,0,.1,0,.2l-.4.5v1.9s0,0,0,.1l-.2.5c0,.1-.2.2-.3.2h0v46.1h5.4v-46.1Z"/>
        <polygon class="cls-2" points="398.8 208.7 398.8 207.8 398.1 207.8 397.4 207.8 397.4 208.7 397.7 209.1 398.1 209.1 398.5 209.1 398.8 208.7"/>
        <path class="cls-2" d="M403.8,212.2h0c-.1,0-.2,0-.3-.2l-.2-.5s0,0,0-.1v-1.9l-.4-.5c0,0,0-.1,0-.2v-1h-3.4v1c0,0,0,.1,0,.2l-.4.5v1.9s0,0,0,.1l-.2.5c0,.1-.2.2-.3.2h0v46.1h5.4v-46.1Z"/>
        <polygon class="cls-2" points="421.9 211.6 422.1 211.6 422.2 211.6 422.3 211.3 422.3 209.7 421.8 209.7 421.8 211.3 421.9 211.6"/>
        <polygon class="cls-2" points="422.7 208.7 422.7 207.8 421.4 207.8 421.4 208.7 421.7 209.1 422.4 209.1 422.7 208.7"/>
        <polygon class="cls-2" points="416.6 92.9 415.6 92.9 415.6 95.5 415.8 96 416.1 96 416.4 96 416.6 95.5 416.6 92.9"/>
        <path class="cls-2" d="M398.6,77v.9c.4,0,.7,0,1.1-.2l-.2-.9c0-.2,0-.4.2-.4.2,0,.4,0,.4.2l.2.9c.3-.1.7-.3,1-.4l-.5-.8c0-.2,0-.4.1-.5.2,0,.4,0,.5.1l.5.8c.3-.2.6-.4.9-.7l-.7-.7c-.1-.1-.1-.4,0-.5.1-.1.4-.1.5,0l.7.7c.2-.3.5-.6.7-.9l-.9-.5c-.2,0-.2-.3-.1-.5,0-.2.3-.2.5-.1l.9.5c.2-.3.3-.7.4-1l-1-.3c-.2,0-.3-.2-.2-.4,0-.2.2-.3.4-.2l1,.3c0-.4.1-.7.2-1.1h-1.1c-.2,0-.3-.2-.3-.3s.2-.3.3-.3h1.1c0-.4,0-.8-.1-1.1l-1.1.3c-.2,0-.4,0-.4-.2,0-.2,0-.4.2-.4l1.1-.3c-.1-.4-.3-.7-.4-1.1l-1.1.6c-.2,0-.4,0-.5-.1,0-.2,0-.4.1-.5l1.1-.6c-.2-.3-.4-.6-.7-.9l-.9.9c-.1.1-.4.1-.5,0-.1-.1-.1-.4,0-.5l.9-.9c-.3-.3-.6-.5-.9-.7l-.6,1.1c0,.2-.3.2-.5.1-.2,0-.2-.3-.1-.5l.6-1.1c-.3-.2-.7-.3-1.1-.5l-.3,1.3c0,.2-.2.3-.4.2-.2,0-.3-.2-.2-.4l.3-1.3c-.4,0-.8-.1-1.2-.1v1.3c0,.2-.2.3-.3.3s-.3-.2-.3-.3v-1.3c-.4,0-.8,0-1.2.2l.3,1.3c0,.2,0,.4-.2.4-.2,0-.4,0-.4-.2l-.3-1.3c-.4.1-.7.3-1.1.5l.7,1.1c0,.2,0,.4-.1.5-.2,0-.4,0-.5-.1l-.6-1.1c-.3.2-.6.5-.9.7l.9.9c.1.1.1.4,0,.5-.1.1-.4.1-.5,0l-.9-.9c-.3.3-.5.6-.7.9l1.1.6c.2,0,.2.3.1.5,0,.2-.3.2-.5.1l-1.1-.6c-.2.3-.3.7-.4,1.1l1.2.3c.2,0,.3.2.2.4,0,.2-.2.3-.4.2l-1.1-.3c0,.4,0,.7,0,1.1h1.1c.2,0,.3.2.3.3s-.2.3-.3.3h-1.1c0,.4.1.7.2,1.1l1.1-.3c.2,0,.4,0,.4.2,0,.2,0,.4-.2.4l-1,.3c.1.4.3.7.5,1l.9-.5c.2,0,.4,0,.5.1,0,.2,0,.4-.1.5l-.9.5c.2.3.4.6.7.8l.7-.7c.1-.1.4-.1.5,0,.1.1.1.4,0,.5l-.7.7c.3.2.6.4.9.6l.5-.8c0-.2.3-.2.5-.1.2,0,.2.3.1.5l-.5.8c.3.2.7.3,1,.4l.2-.9c0-.2.2-.3.4-.2.2,0,.3.2.2.4l-.2.9c.3,0,.7.1,1.1.1v-.9c0-.2.2-.3.3-.3s.3.2.3.3ZM398.1,73h-.3s0,0,0,0l-.4-.4s0-.1,0-.2l.3-.4c0,0-.1-.1-.1-.2l-.4.3s0,0,0,0,0,0,0,0l-.4-.4s0,0,0,0v-.3c0,0,0-.1,0-.1l.4-.4s0,0,0,0,0,0,0,0l.4.3c0,0,.1-.2.2-.2v-.2h-.2c0,0,0,0-.1,0,0,0,0-.1,0-.1l.3-.4h0c0-.1-.2-.1-.2-.1,0,0,0,0-.1,0,0,0,0-.1,0-.1l.3-.4v-.3c-.1,0-.3-.2-.4-.4,0,0,0-.2,0-.4l.5-.7s0,0,.1,0,0,0,.1,0l.5.7c.1.2.1.3,0,.4,0,.2-.3.3-.4.4v.3l.3.4s0,0,0,.1c0,0,0,0-.1,0h-.2c0,.1.3.5.3.5,0,0,0,0,0,.1,0,0,0,0-.1,0h-.2v.2c.1,0,.2.1.3.2h3.2c0-.1.3-.4.5-.4s.2,0,.3,0l.7.5s0,0,0,.1,0,0,0,.1l-.7.5c-.1,0-.2,0-.3,0-.3,0-.5-.3-.5-.4h-.4s0,0,0,0h-2.7c0,.1-.1.2-.2.3l.3.4c0,0,0,.1,0,.2l-.4.4s0,0,0,0Z"/>
      </g>
      <g>
        <path class="cls-1" d="M599.1,157.6c-.8-.8,1.1-1.7.7-3-1.5-1-3-.3-3.9,1-.1.2-.1.5-.2.7-1,1-2.6,0-3.3,1.4.4.4,1.1.2,1.2.7-1.2.8-3.8,1.3-3.4,3.8,1.7.1,2.6-1.2,4.1-1.4.8-1.1,2.1-1.2,3-2.2,1.6.7,3,1.1,3.7-.7-.6-.6-1.4-.2-2.1-.4Z"/>
        <path class="cls-1" d="M609.6,146.5c-1.2,0-2.6-.3-3.2.9,2.1.3.7,2.5.8,4.1,0,1,.4,2.3.7,3.1.2.4.5,1.1,1.1,1.3.5-1.2.8-3,.6-4.1.7-1,.9-2.2.8-3.2.6,0,.4.6,1,.8,1.3.4,1.7-2.2,2.5-2.9-1.6-.9-3.1-.5-4.2,0Z"/>
        <path class="cls-1" d="M578,145.8c-.3-3.6-.5-7.4-1.5-10.7-2.6,1.2-4,7.1-3.3,9.6-1.3.6-2.7,1-4,1.7,1.6,3.9,6.5,1.6,9.2,1.1,1.7.7,3.2,0,3.6-1.4-1.3-1-2.7-.2-3.9-.3Z"/>
        <path class="cls-1" d="M592.4,146.6c.7.3,1,.8,1.6,1.2,1.1.1,2.4-1.9,1.7-2.9-.8-.3-1.1.4-2,0,.3-1.2,2.9-5.2,1.2-5.6-1.6-.4-3.3,2.2-3.9,4.4-.7.8-2.2,0-2.9.9.2.6,1.2.8,1.2,1.4-.4.9-1.5,1.2-2.3,2.2-.8,1.1-2.1,3.1-.9,4.1,1-.4,2-.9,2.6-2,1.3-1,2.7-1.7,3.6-3.6Z"/>
        <path class="cls-1" d="M622.2,153.4c.2-1.3,1.4-2.1,2-3.4-2.4-1.2-4.2.5-5.3,2.6-.8.1-1.8,0-2.5.2-.1.8,1,1,1.1,1.6-1.3,1.6-3.5,5.3-2.3,7.2.6,0,.6-.6,1.2-.2,1.1-2.6,3.1-3.8,4.2-6.3.8.4.7,1.1,1.8,1.3.8-.3,2.2-1.8,1.6-2.9-.8-.5-1,.3-1.8,0Z"/>
      </g>
      <path class="cls-2" d="M1127.7,126.2h0s0,0,0,0c0-.1,0-.3,0-.4-5.6-27.9-9.1-32.6-9.3-32.8-.2-.2-.4-.3-.6-.2-.2,0-.5,0-.6.2-.1.2-3.7,4.9-9.3,32.8,0,.1,0,.3,0,.4h0s0,0,0,0c-5.1,25.5-12.8,75.8-21.1,171h62.2c-8.3-95.2-16-145.5-21.1-171ZM1110.9,117.1h0s5.9,1.9,5.9,1.9l-6.8,2.1h0c.3-1.4.6-2.7.9-4ZM1110,121.6h0s6.2,1.9,6.2,1.9l-7,2.2h0c.3-1.4.6-2.8.9-4.1ZM1108.9,126.9c0,0,0-.2,0-.3h0s5.6,1.8,5.6,1.8l-6.3,2h0c.2-1.2.5-2.4.7-3.5ZM1108.1,130.9h0s6.9,2.2,6.9,2.2l-7.7,2.4h0c.3-1.6.6-3.1.9-4.6ZM1107.2,135.9h0s6.7,2.1,6.7,2.1c-5.1,1.6-8.8,6.4-8.8,12s1,5.7,2.7,7.8h-4.3c1.3-8.5,2.5-15.7,3.6-21.9ZM1109.4,169.9l6.3,4.7h-13.2l6.9-4.7ZM1101.9,169.3h5.6l-6.2,4.2c.2-1.4.4-2.8.6-4.2ZM1096.5,211.3h7.8l-8.4,4.8c.2-1.6.4-3.2.6-4.8ZM1106.7,211.8l8,4.8h-16.4l8.4-4.8ZM1092,253.3h10.3l-11,6.7c.2-2.3.4-4.5.7-6.7ZM1104.4,253.8l9.9,6.7h-20.9l11-6.7ZM1117,295.6h-28.9c0-.9.2-1.9.2-2.8h28.7v2.8ZM1117,291.2h-28.5c0-.9.2-1.9.2-2.8h28.3v2.8ZM1117,286.9h-28.2c0-.9.2-1.9.3-2.8h27.9v2.8ZM1117,282.5h-27.8c0-.9.2-1.9.3-2.8h27.5v2.8ZM1117,278.1h-27.4c0-.9.2-1.9.3-2.8h27.1v2.8ZM1117,273.7h-27c0-.9.2-1.9.3-2.8h26.7v2.8ZM1117,269.3h-26.5c0-.9.2-1.9.3-2.8h26.3v2.8ZM1117,264.9h-26.1c0-.9.2-1.9.3-2.8h25.8s0,0,0,0c0,0,0,0,0,0h0v2.8ZM1117,260.4l-10.6-7.1h10.6v7.1ZM1117,251.7h-24.8c0-.9.2-1.9.3-2.8h24.5v2.8ZM1117,247.3h-24.4c0-.9.2-1.9.3-2.8h24.1v2.8ZM1117,242.9h-23.9c0-.9.2-1.9.3-2.8h23.6v2.8ZM1117,238.5h-23.5c0-.9.2-1.9.3-2.8h23.2v2.8ZM1117,234.1h-23c.1-.9.2-1.9.3-2.8h22.7v2.8ZM1117,229.7h-22.5c.1-.9.2-1.9.3-2.8h22.2v2.8ZM1117,225.3h-22.1c.1-.9.2-1.9.3-2.8h21.7v2.8ZM1117,220.9h-21.6c.1-.9.2-1.9.3-2.8h21.3v2.8ZM1117,216.1l-8.1-4.8h8.1v4.8ZM1117,209.7h-20.3c.1-.9.2-1.9.3-2.8h20v2.8ZM1117,205.3h-19.8c.1-.9.2-1.9.3-2.8h19.4v2.8ZM1117,200.9h-19.2c.1-.9.2-1.9.3-2.8h18.9v2.8ZM1117,196.5h-18.7c.1-.9.2-1.9.3-2.8h18.4v2.8ZM1117,192.1h-18.2c.1-.9.2-1.9.4-2.8h17.8v2.8ZM1117,187.7h-17.6c.1-.9.2-1.9.4-2.8h17.2v2.8ZM1117,183.4h-17c.1-.9.2-1.9.4-2.8h16.6v2.8ZM1117,179h-16.4c.1-.9.3-1.9.4-2.8h16v2.8ZM1117,173.6l-5.7-4.3h5.7v4.3ZM1117,96.1c-.9,2.1-2.2,5.8-3.9,12.3l3.9,5.5v.5l-5.8,1.8h0c2.6-11.6,4.7-17.4,5.8-20.2h0ZM1143.5,253.3c.2,2.2.4,4.4.7,6.7l-11-6.7h10.3ZM1142.1,260.5h-20.9l9.9-6.7,11,6.7ZM1139,211.3c.2,1.6.4,3.2.6,4.8l-8.4-4.8h7.8ZM1137.2,216.5h-16.4l8-4.8,8.4,4.8ZM1133.6,169.3c.2,1.4.4,2.8.6,4.2l-6.2-4.2h5.6ZM1133,174.6h-13.2l6.3-4.7,6.9,4.7ZM1128.3,135.9c1.1,6.2,2.3,13.4,3.6,21.9h-4.3c1.7-2.1,2.7-4.9,2.7-7.8,0-5.6-3.7-10.4-8.8-12l6.7-2.1h0ZM1127.3,130.9c.3,1.5.6,3,.9,4.6h0s-7.7-2.4-7.7-2.4l6.9-2.2h0ZM1126.5,126.6c0,0,0,.2,0,.3.2,1.1.4,2.3.7,3.5h0s-6.3-2-6.3-2l5.6-1.7h0ZM1125.5,121.6c.3,1.3.6,2.7.9,4.1h0s-7-2.2-7-2.2l6.2-1.9h0ZM1124.5,117.1c.3,1.3.6,2.6.9,4h0s-6.8-2.1-6.8-2.1l5.9-1.9h0ZM1118.5,114l3.9-5.5c-1.7-6.5-3-10.3-3.9-12.3h0c1.2,2.8,3.2,8.6,5.8,20.2h0s-5.8-1.8-5.8-1.8v-.5ZM1118.5,169.3h5.7l-5.7,4.3v-4.3ZM1118.5,176.2h16c.1.9.3,1.9.4,2.8h-16.4v-2.8ZM1118.5,180.5h16.6c.1.9.2,1.9.4,2.8h-17v-2.8ZM1118.5,184.9h17.2c.1.9.2,1.9.4,2.8h-17.6v-2.8ZM1118.5,189.3h17.8c.1.9.2,1.9.4,2.8h-18.2v-2.8ZM1118.5,193.7h18.4c.1.9.2,1.9.3,2.8h-18.7v-2.8ZM1118.5,198.1h18.9c.1.9.2,1.9.3,2.8h-19.2v-2.8ZM1118.5,202.5h19.4c.1.9.2,1.9.3,2.8h-19.8v-2.8ZM1118.5,206.9h20c.1.9.2,1.9.3,2.8h-20.3v-2.8ZM1118.5,211.3h8.1l-8.1,4.8v-4.8ZM1118.5,218.1h21.3c.1.9.2,1.9.3,2.8h-21.6v-2.8ZM1118.5,222.5h21.7c.1.9.2,1.9.3,2.8h-22.1v-2.8ZM1118.5,226.9h22.2c.1.9.2,1.9.3,2.8h-22.5v-2.8ZM1118.5,231.3h22.7c0,.9.2,1.9.3,2.8h-23v-2.8ZM1118.5,235.7h23.2c0,.9.2,1.9.3,2.8h-23.5v-2.8ZM1118.5,240.1h23.6c0,.9.2,1.9.3,2.8h-23.9v-2.8ZM1118.5,244.5h24.1c0,.9.2,1.9.3,2.8h-24.4v-2.8ZM1118.5,248.9h24.5c0,.9.2,1.9.3,2.8h-24.8v-2.8ZM1118.5,253.3h10.6l-10.6,7.1v-7.1ZM1118.5,262.1h0s0,0,0,0c0,0,0,0,0,0h25.8c0,.9.2,1.9.3,2.8h-26.1v-2.8ZM1118.5,266.5h26.3c0,.9.2,1.9.3,2.8h-26.5v-2.8ZM1118.5,270.9h26.7c0,.9.2,1.9.3,2.8h-27v-2.8ZM1118.5,275.3h27.1c0,.9.2,1.9.3,2.8h-27.4v-2.8ZM1118.5,279.7h27.5c0,.9.2,1.9.3,2.8h-27.8v-2.8ZM1118.5,284.1h27.9c0,.9.2,1.9.3,2.8h-28.2v-2.8ZM1118.5,288.4h28.3c0,.9.2,1.9.2,2.8h-28.5v-2.8ZM1147.4,295.6h-28.9v-2.8h28.7c0,.9.2,1.9.2,2.8h0Z"/>
      <g>
        <path class="cls-2" d="M314.6,125.6l.3,1.3c1.4,5.6,2.8,11.4,6.5,15.5,1.5,1.7,3.2,2.8,5,3.3,1.8-.5,3.5-1.6,5-3.3,3.6-4.1,5.1-9.9,6.5-15.5l.3-1.3c1.7-6.8,3.3-13.8,4.8-21.4,2.7-13.9,4.8-27.9,6.4-40.1h-46c1.7,12.2,3.7,26.3,6.4,40.1,1.5,7.7,3,14.7,4.8,21.4ZM343,67v5c-.7-.2-1.5-.4-2.6-.6v-4.3c1,0,1.9,0,2.6,0ZM338.6,67v4c-.8-.1-1.6-.3-2.6-.4v-3.5c.9,0,1.8,0,2.6,0ZM334.2,67v3.3c-.8,0-1.7-.2-2.6-.2v-3c.9,0,1.7,0,2.6,0ZM329.8,67v2.9c-.8,0-1.7,0-2.6,0v-2.8c.9,0,1.7,0,2.6,0ZM325.4,67.1v2.8c-.8,0-1.7,0-2.6,0v-2.8c.8,0,1.7,0,2.6,0ZM320.9,67.1v2.9c-.8,0-1.7.1-2.6.2v-3.2c.8,0,1.7,0,2.6,0ZM316.5,67.1v3.4c-.8.1-1.7.3-2.6.4v-3.8c.8,0,1.7,0,2.6,0ZM312.1,67.1v4.1c-.8.2-1.7.4-2.6.6v-4.7c.7,0,1.6,0,2.6,0ZM326.3,71.3c5,0,10.9,1,17.3,4,0,0-3.6,31.6-8.5,45,0,0-3.5,13.5-8.7,13.8-5.2-.3-8.7-13.8-8.7-13.8-4.9-13.4-8.5-45-8.5-45,6.4-3,12.2-4,17.3-4Z"/>
        <path class="cls-2" d="M344.3,104.5c-1.5,7.7-3.1,14.7-4.8,21.5l-.3,1.3c-1.4,5.8-2.9,11.8-6.8,16.2-1.7,2-3.8,3.3-5.9,3.7h0s0,0,0,0c0,0,0,0,0,0h0c-2.1-.5-4.2-1.8-5.9-3.8-3.9-4.4-5.4-10.4-6.8-16.2l-.3-1.3c-1.7-6.8-3.3-13.8-4.8-21.5-2.7-14-4.8-28.1-6.5-40.4h0v234.1h48.4V65.8c-1.6,11.9-3.7,25.3-6.2,38.6ZM346.1,290.3h-39.3v-1h39.3v1ZM346.1,283.4h-39.3v-1h39.3v1ZM346.1,276.5h-39.3v-1h39.3v1ZM346.1,269.6h-39.3v-1h39.3v1ZM346.1,262.7h-39.3v-1h39.3v1ZM346.1,255.8h-39.3v-1h39.3v1ZM346.1,248.9h-39.3v-1h39.3v1ZM346.1,242h-39.3v-1h39.3v1ZM346.1,235.1h-39.3v-1h39.3v1ZM346.1,228.2h-39.3v-1h39.3v1ZM346.1,221.3h-39.3v-1h39.3v1ZM346.1,214.4h-39.3v-1h39.3v1ZM346.1,207.5h-39.3v-1h39.3v1ZM346.1,200.7h-39.3v-1h39.3v1ZM346.1,193.8h-39.3v-1h39.3v1ZM346.1,186.9h-39.3v-1h39.3v1ZM346.1,180h-39.3v-1h39.3v1ZM346.1,173.1h-39.3v-1h39.3v1ZM346.1,166.2h-39.3v-1h39.3v1ZM346.1,159.3h-39.3v-1h39.3v1ZM346.1,152.4h-39.3v-1h39.3v1Z"/>
      </g>
      <g>
        <polygon class="cls-2" points="1249.9 199 1249.9 201.3 1269 201.3 1269 199.2 1263.2 172.9 1249.9 199"/>
        <polygon class="cls-2" points="1249.9 202.6 1249.9 202.7 1263.8 230.9 1268.2 202.6 1249.9 202.6"/>
        <polygon class="cls-2" points="1249.9 196.3 1262.4 171.7 1249.9 171.7 1249.9 196.3"/>
        <polygon class="cls-2" points="1249.9 205.5 1249.9 232.3 1263.1 232.3 1249.9 205.5"/>
        <polygon class="cls-2" points="1269 255.3 1269 233.6 1264.8 233.6 1269 255.3"/>
        <polygon class="cls-2" points="1249.9 142.8 1249.9 170.4 1262.7 170.4 1249.9 142.8"/>
        <polygon class="cls-2" points="1264 170.4 1269 170.4 1269 147.2 1264 170.4"/>
        <polygon class="cls-2" points="1269 193.4 1269 171.7 1264.2 171.7 1269 193.4"/>
        <polygon class="cls-2" points="1249.9 260.4 1263.1 233.6 1249.9 233.6 1249.9 260.4"/>
        <polygon class="cls-2" points="1269 297.5 1269 267.5 1263.3 297.5 1269 297.5"/>
        <polygon class="cls-2" points="1263.1 168.5 1269 141.3 1265.2 100.2 1253.7 100.2 1250.1 140.1 1263.1 168.5"/>
        <polygon class="cls-2" points="1249.9 297.5 1261 297.5 1249.9 266.9 1249.9 297.5"/>
        <polygon class="cls-2" points="1250.1 262.9 1249.9 263.3 1262.1 296.8 1268.6 262.9 1250.1 262.9"/>
        <polygon class="cls-2" points="1269 232.3 1269 206 1264.8 232.3 1269 232.3"/>
        <polygon class="cls-2" points="1268.9 261.4 1263.8 234.9 1250.7 261.7 1268.8 261.7 1268.9 261.4"/>
        <polygon class="cls-2" points="1222.3 199.2 1222.3 201.3 1241.4 201.3 1241.4 199 1228.1 172.9 1222.3 199.2"/>
        <polygon class="cls-2" points="1227.5 230.9 1241.4 202.7 1241.4 202.6 1223 202.6 1227.5 230.9"/>
        <polygon class="cls-2" points="1241.4 196.3 1241.4 171.7 1228.9 171.7 1241.4 196.3"/>
        <polygon class="cls-2" points="1241.4 232.3 1241.4 205.5 1228.2 232.3 1241.4 232.3"/>
        <polygon class="cls-2" points="1222.3 233.6 1222.3 255.3 1226.4 233.6 1222.3 233.6"/>
        <polygon class="cls-2" points="1241.4 170.4 1241.4 142.8 1228.6 170.4 1241.4 170.4"/>
        <polygon class="cls-2" points="1222.3 147.2 1222.3 170.4 1227.3 170.4 1222.3 147.2"/>
        <polygon class="cls-2" points="1222.3 171.7 1222.3 193.4 1227.1 171.7 1222.3 171.7"/>
        <polygon class="cls-2" points="1241.4 260.4 1241.4 233.6 1228.2 233.6 1241.4 260.4"/>
        <polygon class="cls-2" points="1222.3 297.5 1228 297.5 1222.3 267.5 1222.3 297.5"/>
        <polygon class="cls-2" points="1241.2 140.1 1237.6 100.2 1226.1 100.2 1222.3 141.3 1228.1 168.5 1241.2 140.1"/>
        <polygon class="cls-2" points="1241.4 297.5 1241.4 266.9 1230.2 297.5 1241.4 297.5"/>
        <polygon class="cls-2" points="1241.2 262.9 1222.7 262.9 1229.2 296.8 1241.3 263.3 1241.2 262.9"/>
        <polygon class="cls-2" points="1222.3 206 1222.3 232.3 1226.5 232.3 1222.3 206"/>
        <polygon class="cls-2" points="1222.5 261.7 1240.6 261.7 1227.5 234.9 1222.4 261.4 1222.5 261.7"/>
        <polygon class="cls-2" points="1245.6 118.3 1239.1 100.2 1243.1 142.8 1243.1 297.5 1245.6 297.5 1248.1 297.5 1248.1 142.8 1252.2 100.2 1245.6 118.3"/>
      </g>
      <path class="cls-2" d="M1205.1,93.8v-12.1c-.4,0-11.4,5.8-11.4,5.8v3.7c0,0-3.8,0-3.8,0v-17.2h-.6v-3.4h-.8v-13.9h-1.5v13.9h-.8v3.4h-.6v17.9h-2.6v-17.9h-.6v-3.4h-.8v-13.9h-1.5v13.9h-.8v3.4h-.6v17.2h-3.9v-3.7c0,0-10.9-5.8-11.3-5.8v12.1h7.9v2.1h-7.9v1.4h7.9v2.1h-7.9v198.1h41.4V99.4h-7.9v-2.1h7.9v-1.4h-7.9v-2.1h7.9ZM1189.9,104.2h4.1l.3,15.4h-2.6v-3.6h-1.7v-11.7ZM1189.8,122.4h3.3v3h-3.3v-3ZM1188.5,122.4v3h-3.3v-3h3.3ZM1183.1,104.1h2.6v11.8h-2.6v-11.8ZM1180.3,122.4h3.3v3h-3.3v-3ZM1179,122.4v3h-3.3v-3h3.3ZM1174.7,104.2h4.1v11.7h-1.7v3.6h-2.6l.3-15.4ZM1171.1,122.4h3.3v3h-3.3v-3ZM1197.7,276.2h-26.7v-1.8h26.7v1.8ZM1197.7,271.7h-26.7v-1.8h26.7v1.8ZM1197.7,267.1h-26.7v-1.8h26.7v1.8ZM1197.7,262.6h-26.7v-1.8h26.7v1.8ZM1197.7,258.1h-26.7v-1.8h26.7v1.8ZM1197.7,253.5h-26.7v-1.8h26.7v1.8ZM1197.7,249h-26.7v-1.8h26.7v1.8ZM1197.7,244.5h-26.7v-1.8h26.7v1.8ZM1197.7,239.9h-26.7v-1.8h26.7v1.8ZM1197.7,235.4h-26.7v-1.8h26.7v1.8ZM1197.7,230.9h-26.7v-1.8h26.7v1.8ZM1197.7,226.3h-26.7v-1.8h26.7v1.8ZM1197.7,221.8h-26.7v-1.8h26.7v1.8ZM1197.7,217.3h-26.7v-1.8h26.7v1.8ZM1197.7,212.8h-26.7v-1.8h26.7v1.8ZM1197.7,208.2h-26.7v-1.8h26.7v1.8ZM1197.7,203.7h-26.7v-1.8h26.7v1.8ZM1197.7,199.2h-26.7v-1.8h26.7v1.8ZM1197.7,194.6h-26.7v-1.8h26.7v1.8ZM1197.7,190.1h-26.7v-1.8h26.7v1.8ZM1197.7,185.6h-26.7v-1.8h26.7v1.8ZM1197.7,181h-26.7v-1.8h26.7v1.8ZM1197.7,176.5h-26.7v-1.8h26.7v1.8ZM1197.7,172h-26.7v-1.8h26.7v1.8ZM1197.7,167.4h-26.7v-1.8h26.7v1.8ZM1174.4,158.8v3h-3.3v-3h3.3ZM1171.1,157.4v-3h3.3v3h-3.3ZM1179,158.8v3h-3.3v-3h3.3ZM1175.7,157.4v-3h3.3v3h-3.3ZM1183.6,158.8v3h-3.3v-3h3.3ZM1180.3,157.4v-3h3.3v3h-3.3ZM1188.5,158.8v3h-3.3v-3h3.3ZM1185.2,157.4v-3h3.3v3h-3.3ZM1193.1,158.8v3h-3.3v-3h3.3ZM1189.8,157.4v-3h3.3v3h-3.3ZM1197.6,158.8v3h-3.3v-3h3.3ZM1194.4,157.4v-3h3.3v3h-3.3ZM1197.7,149.8h-26.7v-1.8h26.7v1.8ZM1197.7,145.2h-26.7v-1.8h26.7v1.8ZM1197.7,140.7h-26.7v-1.8h26.7v1.8ZM1197.7,136.2h-26.7v-1.8h26.7v1.8ZM1197.7,131.6h-26.7v-1.8h26.7v1.8ZM1197.6,122.4v3h-3.3v-3h3.3Z"/>
      <g>
        <polygon class="cls-2" points="1027 169.9 1035 169.9 1043 169.9 1043 158.9 1035 158.9 1027 158.9 1027 169.9"/>
        <path class="cls-2" d="M1024.6,210.4h20.8c7-3.7,11.7-11.1,11.7-19.5s-5.6-17-13.5-20.4h-17.3c-7.9,3.4-13.5,11.2-13.5,20.4s4.8,15.8,11.7,19.5ZM1054.8,190.4h-1.3v-.7c.1-1.3.6-1.3.6-1.3.6,0,.7,1.4.7,1.4v.6ZM1049.8,179.6s.1,0,.3,0h0s0,0,0,0c0,0,0,0,.1,0,4,.1,4.9,8,4.9,8h-6.6v-2.5s-.4-4.8,1.2-5.4ZM1053.1,189.8v.6h-1.3v-.7c.1-1.3.6-1.3.6-1.3.6,0,.7,1.4.7,1.4ZM1051.5,189.8v.6h-1.3v-.7c.1-1.3.6-1.3.6-1.3.6,0,.7,1.4.7,1.4ZM1048.6,189.6c.1-1.3.6-1.3.6-1.3.6,0,.7,1.4.7,1.4v.6h-1.3v-.7ZM1054.8,191.8c-1,10.4-6.2,14-6.2,14h-3.4c4.1-7.9,3.4-14,3.4-14h6.2ZM1037.6,184.5c.8-5.2,4.3-5.2,4.3-5.2,4.3,0,4.8,5.9,4.8,5.9v2.4h-9.1v-3.1ZM1046.7,189.8v.6h-1.7v-.7c.1-1.3.8-1.3.8-1.3.8,0,.9,1.4.9,1.4ZM1044.5,189.8v.6h-1.7v-.7c.1-1.3.8-1.3.8-1.3.8,0,.9,1.4.9,1.4ZM1042.2,189.8v.6h-1.7v-.7c.1-1.3.8-1.3.8-1.3.8,0,.9,1.4.9,1.4ZM1040,189.8v.6h-1.7v-.7c.1-1.3.8-1.3.8-1.3.8,0,.9,1.4.9,1.4ZM1037.6,191.8h9.1c0,8.6-3.6,14-3.6,14h-5.5v-14ZM1023.3,185.2s.6-5.9,4.8-5.9c0,0,3.5,0,4.3,5.2v3.1h-9.1v-2.4ZM1031.8,189.6v.7h-1.7v-.6s.1-1.4.9-1.4c0,0,.7,0,.8,1.3ZM1029.6,189.6v.7h-1.7v-.6s.1-1.4.9-1.4c0,0,.7,0,.8,1.3ZM1027.3,189.6v.7h-1.7v-.6s.1-1.4.9-1.4c0,0,.7,0,.8,1.3ZM1025.1,189.6v.7h-1.7v-.6s.1-1.4.9-1.4c0,0,.7,0,.8,1.3ZM1032.4,191.8v14h-5.5s-3.6-5.4-3.6-14h9.1ZM1019.7,179.6s0,0,.1,0c0,0,0,0,0,0h0c.2,0,.3,0,.3,0,1.7.6,1.2,5.4,1.2,5.4v2.5h-6.6s.8-7.8,4.9-8ZM1021.5,189.6v.7h-1.3v-.6s0-1.4.7-1.4c0,0,.5,0,.6,1.3ZM1019.9,189.6v.7h-1.3v-.6s0-1.4.7-1.4c0,0,.5,0,.6,1.3ZM1018.2,189.6v.7h-1.3v-.6s0-1.4.7-1.4c0,0,.5,0,.6,1.3ZM1016.6,189.6v.7h-1.3v-.6s0-1.4.7-1.4c0,0,.5,0,.6,1.3ZM1021.5,191.8s-.7,6.1,3.4,14h-3.4s-5.1-3.6-6.2-14h6.2Z"/>
        <path class="cls-2" d="M1018.2,289.7l15.4-12.6v-66.1h-8.4v61c-.2,5.1-4.6,6.3-4.6,6.3l-19.9,10-2.5,9.6h18.6l1.2-8c0,0,0-.1.1-.2Z"/>
        <polygon class="cls-2" points="1041.8 158.3 1041.8 156.1 1035 156.1 1028.3 156.1 1028.3 158.3 1035 158.3 1041.8 158.3"/>
        <path class="cls-2" d="M1069.2,288.3l-19.9-10s-4.4-1.2-4.6-6.3v-61h-8.4v66.1l15.4,12.6c0,0,0,.1.1.2l1.2,8h18.6l-2.5-9.6Z"/>
        <path class="cls-2" d="M1037,142.6v-1.1s-.3-1.2-2-1.2-2,1.2-2,1.2v1.1h3.9Z"/>
        <polygon class="cls-2" points="1035.9 277.6 1035 277.6 1034.1 277.6 1018.7 290.1 1017.5 297.9 1035 297.9 1052.5 297.9 1051.3 290.1 1035.9 277.6"/>
        <polygon class="cls-2" points="1043.1 155.5 1043.1 148.1 1035 148.1 1026.9 148.1 1026.9 155.5 1035 155.5 1043.1 155.5"/>
        <polygon class="cls-2" points="1040.7 147.5 1040.7 143.3 1035 143.3 1029.3 143.3 1029.3 147.5 1035 147.5 1040.7 147.5"/>
      </g>
      <g>
        <polygon class="cls-2" points="270.4 125.8 268.6 125.8 268.6 125.8 264.6 125.8 264.6 125.8 262.8 125.8 262.8 142.5 270.4 142.5 270.4 125.8"/>
        <polygon class="cls-2" points="272.9 175.9 271.4 182.3 270.2 182.3 270.2 175.9 267.7 175.9 267.7 182.5 266.6 182.5 265.5 182.5 265.5 175.9 263 175.9 263 182.3 261.8 182.3 260.3 175.9 258.3 175.9 259.9 182.8 259.7 185.6 273.5 185.6 273.4 182.8 274.9 175.9 272.9 175.9"/>
        <path class="cls-2" d="M262.2,148.4h8.9c0-1.2,0-3.8-2-3.7v-1.1h1.3s-7.6,0-7.6,0h0s1.3,0,1.3,0v1.1c-1.9,0-2,2.5-2,3.7Z"/>
        <rect class="cls-2" x="255.4" y="186.6" width="22.5" height="4"/>
        <rect class="cls-2" x="259.7" y="149.5" width="13.7" height="2.4"/>
        <polygon class="cls-2" points="259.6 298.2 262.8 298.2 262.8 194 265 194 265 298.2 266.6 298.2 268.2 298.2 268.2 194 270.4 194 270.4 298.2 273.6 298.2 273.6 191.8 259.6 191.8 259.6 298.2"/>
        <path class="cls-2" d="M268.5,86.5h-3.8v8.7s3.8,0,3.8,0v-8.7Z"/>
        <polygon class="cls-2" points="268.5 96.2 264.7 96.2 264.6 105 268.6 105 268.5 96.2"/>
        <polygon class="cls-2" points="268.6 106.1 264.6 106.1 264.6 114.9 268.6 114.9 268.6 106.1"/>
        <polygon class="cls-2" points="268.6 116 264.6 116 264.6 124.8 268.6 124.8 268.6 116"/>
        <rect class="cls-2" x="273.6" y="157.1" width="5.7" height="5.7" transform="translate(-32.1 242.3) rotate(-45)"/>
        <rect class="cls-2" x="264.1" y="166.6" width="5.7" height="5.7" transform="translate(-41.6 238.4) rotate(-45)"/>
        <rect class="cls-2" x="268.9" y="161.9" width="5.7" height="5.7" transform="translate(-36.9 240.3) rotate(-45)"/>
        <rect class="cls-2" x="278.4" y="161.9" width="5.7" height="5.7" transform="translate(-34.1 247.1) rotate(-45)"/>
        <polygon class="cls-2" points="265.6 174.8 266.2 174.2 262.2 170.2 258.2 174.2 258.8 174.8 265.6 174.8"/>
        <path class="cls-2" d="M283,170.5c.5-1,1.1-2.2,1.6-3.6l-2.6,2.6,1,1Z"/>
        <polygon class="cls-2" points="275.7 174.2 271.7 170.2 267.7 174.2 268.3 174.8 275.1 174.8 275.7 174.2"/>
        <path class="cls-2" d="M281.2,159.2l1.3-1.3c-1-1.4-2.4-2.8-4.2-3.8l-1.1,1.1,4,4Z"/>
        <polygon class="cls-2" points="260.3 153 258.2 155.2 262.2 159.2 266.2 155.2 264 153 260.3 153"/>
        <polygon class="cls-2" points="273.5 153 269.9 153 267.7 155.2 271.7 159.2 275.7 155.2 273.7 153.2 273.5 153.2 273.5 153"/>
        <path class="cls-2" d="M277.2,174.2l.6.6h1.8c.8-.6,1.8-1.7,2.8-3.4l-1.2-1.2-4,4Z"/>
        <rect class="cls-2" x="273.6" y="166.6" width="5.7" height="5.7" transform="translate(-38.9 245.1) rotate(-45)"/>
        <polygon class="cls-2" points="265.5 153 266.9 154.4 268.3 153 265.5 153"/>
        <rect class="cls-2" x="249.8" y="161.9" width="5.7" height="5.7" transform="translate(-42.5 226.9) rotate(-45)"/>
        <path class="cls-2" d="M248.3,165.9c.7,2.1,1.4,3.7,2.1,5l1.4-1.4-3.6-3.6Z"/>
        <rect class="cls-2" x="254.6" y="157.1" width="5.7" height="5.7" transform="translate(-37.7 228.9) rotate(-45)"/>
        <path class="cls-2" d="M258.7,153.2h-1.4c-.3,0-.5.2-.8.3l1,1,1.2-1.2Z"/>
        <path class="cls-2" d="M256.6,155.2l-1.3-1.3c-1.9.9-3.3,2.2-4.4,3.6l1.7,1.7,4-4Z"/>
        <path class="cls-2" d="M250.3,158.4c-1.6,2.4-2.2,4.8-2.4,5.5h0s4-4,4-4l-1.6-1.6Z"/>
        <path class="cls-2" d="M285.1,163.1c-.3-1-.9-2.7-2-4.3l-1.2,1.2,3.1,3.1Z"/>
        <rect class="cls-2" x="259.3" y="161.9" width="5.7" height="5.7" transform="translate(-39.7 233.6) rotate(-45)"/>
        <rect class="cls-2" x="254.6" y="166.6" width="5.7" height="5.7" transform="translate(-44.4 231.6) rotate(-45)"/>
        <path class="cls-2" d="M277.3,153.6c-.4-.2-.8-.3-1.3-.4h-.8l1.2,1.2.8-.8Z"/>
        <rect class="cls-2" x="264.1" y="157.1" width="5.7" height="5.7" transform="translate(-34.9 235.6) rotate(-45)"/>
        <path class="cls-2" d="M256.6,174.2l-4-4-1.6,1.6c.9,1.5,1.8,2.4,2.6,3h2.4l.6-.6Z"/>
      </g>
      <g>
        <path class="cls-2" d="M16.9,22.9l-1.6,56.9,7.6,12s-2.2-61.9-6-68.9Z"/>
        <path class="cls-2" d="M15.3,83.1v54.5l15-21.8s-5.8-20.1-15-32.7Z"/>
        <path class="cls-2" d="M44.7,158.5v-.6l-13.6-39.3-17.2,24.9-3.6,5.3v149.3h34.5v-139.5h0ZM38.4,149.7h0l2.4,7h-2.4v-7ZM16.6,282.5h-2.7v-7h2.7v7ZM16.6,272.8h-2.7v-7h2.7v7ZM16.6,263.1h-2.7v-7h2.7v7ZM16.6,253.4h-2.7v-7h2.7v7ZM16.6,243.8h-2.7v-7h2.7v7ZM16.6,234.1h-2.7v-7h2.7v7ZM16.6,224.4h-2.7v-7h2.7v7ZM16.6,214.8h-2.7v-7h2.7v7ZM16.6,205.1h-2.7v-7h2.7v7ZM16.6,195.4h-2.7v-7h2.7v7ZM16.6,185.7h-2.7v-7h2.7v7ZM16.6,176.1h-2.7v-7h2.7v7ZM16.6,166.4h-2.7v-7h2.7v7ZM16.6,156.7h-2.7v-7h2.7v7ZM20.6,282.5h-2.7v-7h2.7v7ZM20.6,272.8h-2.7v-7h2.7v7ZM20.6,263.1h-2.7v-7h2.7v7ZM20.6,253.4h-2.7v-7h2.7v7ZM20.6,243.8h-2.7v-7h2.7v7ZM20.6,234.1h-2.7v-7h2.7v7ZM20.6,224.4h-2.7v-7h2.7v7ZM20.6,214.8h-2.7v-7h2.7v7ZM20.6,205.1h-2.7v-7h2.7v7ZM20.6,195.4h-2.7v-7h2.7v7ZM20.6,185.7h-2.7v-7h2.7v7ZM20.6,176.1h-2.7v-7h2.7v7ZM20.6,166.4h-2.7v-7h2.7v7ZM20.6,156.7h-2.7v-7h2.7v7ZM24.7,282.5h-2.7v-7h2.7v7ZM24.7,272.8h-2.7v-7h2.7v7ZM24.7,263.1h-2.7v-7h2.7v7ZM24.7,253.4h-2.7v-7h2.7v7ZM24.7,243.8h-2.7v-7h2.7v7ZM24.7,234.1h-2.7v-7h2.7v7ZM24.7,224.4h-2.7v-7h2.7v7ZM24.7,214.8h-2.7v-7h2.7v7ZM24.7,205.1h-2.7v-7h2.7v7ZM24.7,195.4h-2.7v-7h2.7v7ZM24.7,185.7h-2.7v-7h2.7v7ZM24.7,176.1h-2.7v-7h2.7v7ZM24.7,166.4h-2.7v-7h2.7v7ZM24.7,156.7h-2.7v-7h2.7v7ZM28.8,282.5h-2.7v-7h2.7v7ZM28.8,272.8h-2.7v-7h2.7v7ZM28.8,263.1h-2.7v-7h2.7v7ZM28.8,253.4h-2.7v-7h2.7v7ZM28.8,243.8h-2.7v-7h2.7v7ZM28.8,234.1h-2.7v-7h2.7v7ZM28.8,224.4h-2.7v-7h2.7v7ZM28.8,214.8h-2.7v-7h2.7v7ZM28.8,205.1h-2.7v-7h2.7v7ZM28.8,195.4h-2.7v-7h2.7v7ZM28.8,185.7h-2.7v-7h2.7v7ZM28.8,176.1h-2.7v-7h2.7v7ZM28.8,166.4h-2.7v-7h2.7v7ZM28.8,156.7h-2.7v-7h2.7v7ZM32.9,282.5h-2.7v-7h2.7v7ZM32.9,272.8h-2.7v-7h2.7v7ZM32.9,263.1h-2.7v-7h2.7v7ZM32.9,253.4h-2.7v-7h2.7v7ZM32.9,243.8h-2.7v-7h2.7v7ZM32.9,234.1h-2.7v-7h2.7v7ZM32.9,224.4h-2.7v-7h2.7v7ZM32.9,214.8h-2.7v-7h2.7v7ZM32.9,205.1h-2.7v-7h2.7v7ZM32.9,195.4h-2.7v-7h2.7v7ZM32.9,185.7h-2.7v-7h2.7v7ZM32.9,176.1h-2.7v-7h2.7v7ZM32.9,166.4h-2.7v-7h2.7v7ZM32.9,156.7h-2.7v-7h2.7v7ZM36.9,282.5h-2.7v-7h2.7v7ZM36.9,272.8h-2.7v-7h2.7v7ZM36.9,263.1h-2.7v-7h2.7v7ZM36.9,253.4h-2.7v-7h2.7v7ZM36.9,243.8h-2.7v-7h2.7v7ZM36.9,234.1h-2.7v-7h2.7v7ZM36.9,224.4h-2.7v-7h2.7v7ZM36.9,214.8h-2.7v-7h2.7v7ZM36.9,205.1h-2.7v-7h2.7v7ZM36.9,195.4h-2.7v-7h2.7v7ZM36.9,185.7h-2.7v-7h2.7v7ZM36.9,176.1h-2.7v-7h2.7v7ZM36.9,166.4h-2.7v-7h2.7v7ZM36.9,156.7h-2.7v-7h2.7v7ZM41,282.5h-2.7v-7h2.7v7ZM41,272.8h-2.7v-7h2.7v7ZM41,263.1h-2.7v-7h2.7v7ZM41,253.4h-2.7v-7h2.7v7ZM41,243.8h-2.7v-7h2.7v7ZM41,234.1h-2.7v-7h2.7v7ZM41,224.4h-2.7v-7h2.7v7ZM41,214.8h-2.7v-7h2.7v7ZM41,205.1h-2.7v-7h2.7v7ZM41,195.4h-2.7v-7h2.7v7ZM41,185.7h-2.7v-7h2.7v7ZM41,176.1h-2.7v-7h2.7v7ZM41,166.4h-2.7v-7h2.7v7Z"/>
      </g>
      <path class="cls-2" d="M653.4,250.9l-52-52v-1.4l-.9-.9h-.7l-.8.9-.8-.9h-.7l-.9.9v1.7l-51.5,51.5-51.7-51.7v-1.4l-.9-.9h-.7l-.8.9-.8-.9h-.7l-.9.9v1.7l-51.8,51.8h-12.5v4.3h61.9v1.3l1.3,5.1v36.7h7.1v-36.7l1.3-5.1v-1.3h98.4v1.3l1.3,5.1v36.7h7.1v-36.7l1.3-5.1v-1.3h61.9v-4.3h-12.3ZM488.5,250.9h-3.5l3.5-3.5v3.5ZM488.5,246.7l-4.2,4.2h-3.7l7.8-7.8v3.7ZM488.5,242.4l-8.5,8.5h-3.7l12.2-12.2v3.7ZM488.5,238l-12.8,12.8h-3.7l16.5-16.5v3.7ZM488.5,233.7l-17.2,17.2h-3.7l20.8-20.8v3.7ZM488.5,229.4l-21.5,21.5h-3.7l25.2-25.2v3.7ZM488.5,225l-25.8,25.8h-3.7l29.5-29.5v3.7ZM488.5,220.7l-30.1,30.1h-3.7l33.8-33.8v3.7ZM488.5,216.4l-34.5,34.5h-3.7l38.1-38.1v3.7ZM488.5,212.1l-38.8,38.8h-3.7l42.5-42.5v3.7ZM488.5,207.7l-43.1,43.1h-3.7l46.8-46.8v3.7ZM488.5,203.4l-47.5,47.5h-3.7l51.1-51.1v3.7ZM490.9,261.3l-1.3-6.1h2.7l-1.3,6.1ZM495.8,250.9h-2.4v-3.7l3.7,3.7h-1.3ZM497.7,250.9l-4.4-4.4v-3.7l8,8h-3.7ZM502,250.9l-8.7-8.7v-3.7l12.4,12.4h-3.7ZM506.4,250.9l-13-13v-3.7l16.7,16.7h-3.7ZM510.7,250.9l-17.4-17.4v-3.7l21,21h-3.7ZM515,250.9l-21.7-21.7v-3.7l25.4,25.4h-3.7ZM519.4,250.9l-26-26v-3.7l29.7,29.7h-3.7ZM523.7,250.9l-30.4-30.4v-3.7l34,34h-3.7ZM528,250.9l-34.7-34.7v-3.7l38.3,38.3h-3.7ZM532.3,250.9l-39-39v-3.7l42.7,42.7h-3.7ZM536.7,250.9l-43.3-43.3v-3.7l47,47h-3.7ZM541,250.9l-47.7-47.7v-3.7l51.3,51.3h-3.7ZM596.6,250.9h-3.5l3.5-3.5v3.5ZM596.6,246.7l-4.2,4.2h-3.7l7.8-7.8v3.7ZM596.6,242.4l-8.5,8.5h-3.7l12.2-12.2v3.7ZM596.6,238l-12.8,12.8h-3.7l16.5-16.5v3.7ZM596.6,233.7l-17.2,17.2h-3.7l20.8-20.8v3.7ZM596.6,229.4l-21.5,21.5h-3.7l25.2-25.2v3.7ZM596.6,225l-25.8,25.8h-3.7l29.5-29.5v3.7ZM596.6,220.7l-30.1,30.1h-3.7l33.8-33.8v3.7ZM596.6,216.4l-34.5,34.5h-3.7l38.1-38.1v3.7ZM596.6,212.1l-38.8,38.8h-3.7l42.5-42.5v3.7ZM596.6,207.7l-43.1,43.1h-3.7l46.8-46.8v3.7ZM596.6,203.4l-47.5,47.5h-3.7l51.1-51.1v3.7ZM599,261.3l-1.3-6.1h2.7l-1.3,6.1ZM603.8,250.9h-2.4v-3.7l3.7,3.7h-1.3ZM605.8,250.9l-4.4-4.4v-3.7l8,8h-3.7ZM610.1,250.9l-8.7-8.7v-3.7l12.4,12.4h-3.7ZM614.4,250.9l-13-13v-3.7l16.7,16.7h-3.7ZM618.8,250.9l-17.4-17.4v-3.7l21,21h-3.7ZM623.1,250.9l-21.7-21.7v-3.7l25.4,25.4h-3.7ZM627.4,250.9l-26-26v-3.7l29.7,29.7h-3.7ZM631.7,250.9l-30.4-30.4v-3.7l34,34h-3.7ZM636.1,250.9l-34.7-34.7v-3.7l38.3,38.3h-3.7ZM640.4,250.9l-39-39v-3.7l42.7,42.7h-3.7ZM644.7,250.9l-43.3-43.3v-3.7l47,47h-3.7ZM649.1,250.9l-47.7-47.7v-3.7l51.3,51.3h-3.7Z"/>
      <g>
        <polygon class="cls-2" points="108.9 223.8 108.9 227 149.6 227 190.2 227 190.2 223.8 149.6 223.8 108.9 223.8"/>
        <path class="cls-2" d="M57.4,236c16.6-4,54.1-4.4,54.1-4.4h76.1s37.6.5,54.1,4.4l1.7-1.4,1.7-1.5c-1.2-.3-22.8-5-53.3-4.5h-84.6c-30.5-.4-52.2,4.3-53.3,4.5l1.7,1.5,1.7,1.4Z"/>
        <path class="cls-2" d="M84,233.7l2.1,3c2.2-.1,4.5-.3,6.8-.4l-1.7-3.1c-2.3.1-4.7.3-7.2.4Z"/>
        <path class="cls-2" d="M144.1,235.4v-2.9h-6l.2,2.8c1,0,2,0,2.9,0s1.9,0,2.9,0Z"/>
        <path class="cls-2" d="M129.9,232.5h-6.2l.5,2.9c2,0,4,0,6,0l-.4-2.9Z"/>
        <path class="cls-2" d="M92.3,233.2l1.7,3.1c1.5,0,3-.1,4.5-.2.6,0,1.2,0,1.8,0l-1.5-3.1c-2,0-4.2.2-6.5.3Z"/>
        <path class="cls-2" d="M115.5,235.6l-.9-3h-3c0,0-1.4,0-3.6,0l1.2,3.1c2.1,0,4.3-.1,6.4-.1Z"/>
        <path class="cls-2" d="M58.3,236.8l3.2,2.8h.5c2.4-.6,4.9-.9,7.3-1.3l-2.8-3c-3.1.4-5.9.9-8.3,1.4Z"/>
        <path class="cls-2" d="M67.8,235.2l2.8,2.9c2.2-.3,4.3-.5,6.5-.7l-2.3-3c-2.4.2-4.8.5-7.1.8Z"/>
        <path class="cls-2" d="M99.9,232.8l1.5,3.1c2.2,0,4.4-.2,6.6-.2l-1.2-3.1c-1.9,0-4.2.1-6.9.2Z"/>
        <path class="cls-2" d="M137.3,235.4l-.2-2.9h-6.2l.4,2.9c.2,0,.3,0,.5,0,1.8,0,3.7,0,5.5,0Z"/>
        <path class="cls-2" d="M76.1,234.3l2.3,3c2.2-.2,4.4-.4,6.6-.5l-2.1-3c-2.3.2-4.5.3-6.8.5Z"/>
        <path class="cls-2" d="M122.7,232.5h-7.1l.9,3c2.3,0,4.5,0,6.7,0l-.5-2.9Z"/>
        <path class="cls-2" d="M96.7,241.2l1.4,2.5c1.9,0,3.8-.2,5.7-.2l-1.2-2.5c-2,0-4,.1-5.9.2Z"/>
        <path class="cls-2" d="M82,242.1l1.9,2.5c1.5-.1,3-.2,4.5-.3.6,0,1.1,0,1.7-.1l-1.7-2.6c-2.1.1-4.2.3-6.3.5Z"/>
        <path class="cls-2" d="M111,243.3l-1-2.5c-2.1,0-4.1,0-6.2.1l1.2,2.5c2,0,4,0,6-.1Z"/>
        <path class="cls-2" d="M89.4,241.5l1.8,2.6c.7,0,1.4,0,2.1-.1,1.2,0,2.5-.1,3.7-.2l-1.4-2.5c-2.1,0-4.1.2-6.2.3Z"/>
        <path class="cls-2" d="M144.1,240.3c-1.8,0-3.6,0-5.5,0l.2,2.9h5.3v-3Z"/>
        <path class="cls-2" d="M68,243.9c0,0-.2,0-.4,0-.2,0-.5.1-.7.2l2.3,2c2.2-.4,4.5-.6,6.7-.9l-2.1-2.2c-2,.3-4,.6-5.9.9Z"/>
        <path class="cls-2" d="M117,240.8c-.8,0-1.7,0-2.5,0-1.1,0-2.3,0-3.4,0l1,2.5c1.9,0,3.9,0,5.8,0l-.8-2.5Z"/>
        <path class="cls-2" d="M137.6,240.4c-1.8,0-3.7,0-5.6,0l.4,2.8h5.5l-.2-2.9Z"/>
        <path class="cls-2" d="M75.1,242.9l2.1,2.3c1.8-.2,3.6-.3,5.5-.5l-1.8-2.4c-1.9.2-3.8.4-5.7.7Z"/>
        <path class="cls-2" d="M131.4,243.3l-.4-2.8c-1.9,0-3.8,0-5.8.1l.5,2.7c2.2,0,4.3,0,5.2,0h.5Z"/>
        <path class="cls-2" d="M124.6,243.3l-.5-2.6c0,0-.1,0-.2,0-2,0-3.9,0-5.9,0l.8,2.5c.2,0,.5,0,.7,0,.9,0,2.9,0,5.1,0Z"/>
        <path class="cls-2" d="M76.1,250.2c-.6,0-1.3.2-1.9.2l2.3,2c1.6-.2,3.5-.5,5.6-.6l-1.9-2c-1.4.1-2.7.3-4.1.4Z"/>
        <path class="cls-2" d="M100.7,248.3l1.3,2.3c1.5,0,2.4,0,2.6,0h2.6l-1.1-2.4c-1.8,0-3.6,0-5.4.2Z"/>
        <path class="cls-2" d="M94.3,248.6l1.5,2.3c1.9,0,3.6-.1,5-.2l-1.3-2.3c-1.8,0-3.5.2-5.3.3Z"/>
        <path class="cls-2" d="M113.8,250.6l-1-2.5c-1.9,0-3.7,0-5.6,0l1.1,2.4h5.5Z"/>
        <path class="cls-2" d="M92.4,248.7c-1.8.1-3.5.2-5.2.4l1.6,2.1c2-.1,3.9-.2,5.7-.3l-1.5-2.3c-.2,0-.4,0-.6,0Z"/>
        <path class="cls-2" d="M81.4,249.6l1.9,2c1.4-.1,2.9-.2,4.4-.3l-1.6-2.1c-1.6.1-3.1.3-4.7.4Z"/>
        <polygon class="cls-2" points="144.1 248.1 139.2 248.1 139.4 250.6 144.1 250.6 144.1 248.1"/>
        <polygon class="cls-2" points="125.5 248.1 120.3 248.1 121.1 250.6 126 250.6 125.5 248.1"/>
        <polygon class="cls-2" points="132 248.1 126.5 248.1 127 250.6 132.4 250.6 132 248.1"/>
        <polygon class="cls-2" points="138.2 248.1 133 248.1 133.4 250.6 138.3 250.6 138.2 248.1"/>
        <path class="cls-2" d="M119.3,248.1h-.8c-1.5,0-3.1,0-4.6,0l1,2.5h5.1l-.8-2.5Z"/>
        <path class="cls-2" d="M138.7,255.4c-1.5,0-3,0-4.6,0l.6,4.3h4.3l-.3-4.3Z"/>
        <path class="cls-2" d="M92.5,256l2.8,3.7h5.3l-2.8-4.1c-1.9.1-3.7.3-5.3.4Z"/>
        <path class="cls-2" d="M110.5,255.2l2.1,4.5h4.7l-1.7-4.5c-1.9,0-3.6,0-5.1,0Z"/>
        <path class="cls-2" d="M99,255.5l2.9,4.2h4l-2.5-4.5c-1.5,0-3,.2-4.4.3Z"/>
        <path class="cls-2" d="M133,255.3c-1.7,0-3.4,0-5.2,0l.8,4.4h5l-.6-4.3Z"/>
        <path class="cls-2" d="M87.8,256.4l3.1,3.3h3.1l-2.7-3.6c-1.3.1-2.4.2-3.5.3Z"/>
        <path class="cls-2" d="M144.1,255.4c-1.3,0-2.8,0-4.4,0l.3,4.3h4.1v-4.2Z"/>
        <path class="cls-2" d="M81.8,257l3.1,2.7h4.5l-3-3.2c-1.9.2-3.4.4-4.7.5Z"/>
        <path class="cls-2" d="M105.1,255.1c-.2,0-.4,0-.6,0l2.5,4.5h4.6l-2.1-4.5c-2.4,0-4,0-4.3,0Z"/>
        <path class="cls-2" d="M127.6,259.7l-.8-4.4c-1.4,0-2.9,0-4.3,0l1.3,4.4h3.8Z"/>
        <path class="cls-2" d="M116.7,255.2l1.7,4.5h4.4l-1.3-4.4c-1.7,0-3.3,0-4.8,0Z"/>
        <polygon class="cls-2" points="84.6 277.2 84.6 297.8 149.6 297.8 214.6 297.8 214.6 277.2 149.6 277.2 84.6 277.2"/>
        <path class="cls-2" d="M173.5,219s-6.7-11.4-21.5-10.1v-2.6s-1.4-2.2-2.4-7.5c-1,5.3-2.4,7.5-2.4,7.5v2.6c-14.8-1.2-21.5,10.1-21.5,10.1h47.8Z"/>
        <polygon class="cls-2" points="192.8 223 186.7 219.7 149.6 219.7 112.5 219.7 106.4 223 149.6 223 192.8 223"/>
        <path class="cls-2" d="M236.7,240.4c-11.9-2.2-24-2.8-36.1-3.4-11.1-.5-22.2-.6-33.2-.7-5.9,0-11.9,0-17.8,0-5.9,0-11.9,0-17.8,0-11.1,0-22.2.2-33.2.7-12.1.5-24.2,1.1-36.1,3.4l3.5,3c.7-.1,1.7-.4,1.8-.4,2.3-.4,4.7-.7,7-1,16.3-2.2,32.8-1.9,49.2-2.3,6.9-.1,13.9-.3,20.8-.3,1.6,0,3.2,0,4.8,0,1.6,0,3.2,0,4.8,0,6.9,0,13.9.2,20.8.3,16.4.3,32.9.1,49.2,2.3,2.3.3,4.7.7,7,1,.2,0,1.1.3,1.8.4l3.5-3Z"/>
        <path class="cls-2" d="M229,247c-7.6-1.2-15.5-1.5-23.2-2-12.5-.9-25-.7-37.5-.7h-37.4c-12.5,0-25-.2-37.5.7-7.7.5-15.6.8-23.2,2l3,2.6c.9-.1,1.8-.2,2.8-.3,5.5-.6,10.9-1.1,16.4-1.5,11.2-.8,22.5-.6,33.7-.6h47c11.3,0,22.5-.1,33.7.6,5.5.4,11,.8,16.4,1.5.9.1,1.8.2,2.8.3l3-2.6Z"/>
        <path class="cls-2" d="M221.7,253.3c-9.3-1.3-27.1-1.7-27.1-1.7h-90s-17.8.4-27.1,1.7l3.4,2.9c4-.5,11.5-1.3,24.3-2,0,0,39.1.3,44.5.4,5.4,0,44.5-.4,44.5-.4,12.8.7,20.3,1.5,24.3,2l3.4-2.9Z"/>
        <path class="cls-2" d="M206.3,236.3c2.3.1,4.6.2,6.8.4l2.1-3c-2.4-.2-4.8-.3-7.2-.4l-1.7,3.1Z"/>
        <path class="cls-2" d="M161.1,232.5h-6v2.9c1,0,1.9,0,2.9,0s2,0,2.9,0l.2-2.8Z"/>
        <path class="cls-2" d="M169.3,232.5l-.4,2.9c2,0,4,0,6,0l.5-2.9h-6.2Z"/>
        <path class="cls-2" d="M198.9,236c.6,0,1.2,0,1.8,0,1.5,0,3,.1,4.5.2l1.7-3.1c-2.3-.1-4.5-.2-6.5-.3l-1.5,3.1Z"/>
        <path class="cls-2" d="M154.1,235.4v-2.9h-8.9v2.9c1.5,0,3,0,4.5,0,1.5,0,3,0,4.5,0Z"/>
        <path class="cls-2" d="M184.7,232.5l-.9,3c2.1,0,4.2,0,6.4.1l1.2-3.1c-2.2,0-3.6,0-3.6,0h-3Z"/>
        <path class="cls-2" d="M237.7,239.6l3.2-2.8c-2.4-.5-5.2-1-8.3-1.4l-2.8,3c2.5.3,4.9.7,7.3,1.2h.5Z"/>
        <path class="cls-2" d="M231.4,235.2c-2.3-.3-4.6-.5-7.1-.8l-2.3,3c2.2.2,4.4.4,6.5.7l2.8-2.9Z"/>
        <path class="cls-2" d="M191.2,235.7c2.2,0,4.4.1,6.6.2l1.5-3.1c-2.7,0-5-.2-6.9-.2l-1.2,3.1Z"/>
        <path class="cls-2" d="M167.9,235.4l.4-2.9h-6.2l-.2,2.9c1.8,0,3.7,0,5.5,0,.2,0,.3,0,.5,0Z"/>
        <path class="cls-2" d="M214.3,236.8c2.2.1,4.4.3,6.6.5l2.3-3c-2.2-.2-4.5-.4-6.8-.5l-2.1,3Z"/>
        <path class="cls-2" d="M176.5,232.5l-.5,2.9c2.2,0,4.5,0,6.7,0l.9-3h-7.1Z"/>
        <path class="cls-2" d="M195.3,243.5c1.9,0,3.8.1,5.7.2l1.4-2.5c-2,0-4-.1-5.9-.2l-1.2,2.5Z"/>
        <path class="cls-2" d="M209.2,244.2c.6,0,1.1,0,1.7.1,1.5,0,3,.2,4.5.3l1.9-2.5c-2.1-.2-4.2-.4-6.3-.5l-1.7,2.6Z"/>
        <path class="cls-2" d="M188.2,243.3c2,0,4,0,6,.1l1.2-2.5c-2.1,0-4.2,0-6.2-.1l-1,2.5Z"/>
        <path class="cls-2" d="M202.2,243.8c1.2,0,2.5.1,3.7.2.7,0,1.4,0,2.1.1l1.8-2.6c-2.1-.1-4.1-.2-6.2-.3l-1.4,2.5Z"/>
        <path class="cls-2" d="M155.1,240.3v3h5.3l.2-2.9c-1.9,0-3.7,0-5.5,0Z"/>
        <path class="cls-2" d="M232.3,244.2c-.2,0-.5,0-.7-.2-.2,0-.3,0-.4,0-1.9-.3-3.9-.6-5.9-.9l-2.1,2.2c2.3.2,4.5.5,6.7.9l2.3-2Z"/>
        <path class="cls-2" d="M184.7,240.8c-.8,0-1.7,0-2.5,0l-.8,2.5c1.9,0,3.8,0,5.8,0l1-2.5c-1.1,0-2.3,0-3.4,0Z"/>
        <path class="cls-2" d="M161.5,240.4l-.2,2.9h5.5l.4-2.8c-1.9,0-3.8,0-5.6,0Z"/>
        <path class="cls-2" d="M224.1,242.9c-1.9-.3-3.8-.5-5.7-.7l-1.8,2.4c1.8.1,3.6.3,5.5.5l2.1-2.3Z"/>
        <path class="cls-2" d="M173.5,243.3l.5-2.7c-2,0-3.9,0-5.8-.1l-.4,2.8h.5c.9,0,3,0,5.2,0Z"/>
        <path class="cls-2" d="M154.1,243.3v-3c-1.5,0-3,0-4.5,0-1.5,0-3,0-4.5,0v3h8.9Z"/>
        <path class="cls-2" d="M181.1,240.7c-2,0-4,0-5.9,0,0,0-.1,0-.2,0l-.5,2.6c2.2,0,4.2,0,5.1,0s.5,0,.7,0l.8-2.5Z"/>
        <path class="cls-2" d="M225,250.4c-.6,0-1.3-.2-1.9-.2-1.3-.2-2.7-.3-4.1-.4l-1.9,2c2.1.2,4,.4,5.6.6l2.3-2Z"/>
        <path class="cls-2" d="M192,250.6h2.6c.2,0,1.1,0,2.6,0l1.3-2.3c-1.8,0-3.6-.1-5.4-.2l-1.1,2.4Z"/>
        <path class="cls-2" d="M198.3,250.7c1.4,0,3.1.1,5,.2l1.5-2.3c-1.8-.1-3.5-.2-5.3-.3l-1.3,2.3Z"/>
        <polygon class="cls-2" points="154.1 250.6 154.1 248.1 149.6 248.1 145.1 248.1 145.1 250.6 149.6 250.6 154.1 250.6"/>
        <path class="cls-2" d="M185.4,250.6h5.5l1.1-2.4c-1.9,0-3.8,0-5.6,0l-1,2.5Z"/>
        <path class="cls-2" d="M206.1,248.7l-1.5,2.3c1.8,0,3.8.2,5.7.3l1.6-2.1c-1.7-.1-3.4-.3-5.2-.4-.2,0-.4,0-.6,0Z"/>
        <path class="cls-2" d="M217.8,249.6c-1.5-.1-3.1-.3-4.7-.4l-1.6,2.1c1.5,0,2.9.2,4.4.3l1.9-2Z"/>
        <polygon class="cls-2" points="155.1 248.1 155.1 250.6 159.8 250.6 160 248.1 155.1 248.1"/>
        <polygon class="cls-2" points="173.7 248.1 173.2 250.6 178.1 250.6 178.9 248.1 173.7 248.1"/>
        <polygon class="cls-2" points="167.2 248.1 166.8 250.6 172.2 250.6 172.7 248.1 167.2 248.1"/>
        <polygon class="cls-2" points="161 248.1 160.8 250.6 165.8 250.6 166.1 248.1 161 248.1"/>
        <path class="cls-2" d="M180.7,248.1h-.8s-.8,2.5-.8,2.5h5.1l1-2.5c-1.5,0-3.1,0-4.6,0Z"/>
        <path class="cls-2" d="M160.5,255.4l-.3,4.3h4.3l.6-4.3c-1.6,0-3.2,0-4.6,0Z"/>
        <path class="cls-2" d="M198.6,259.7h5.3l2.8-3.7c-1.6-.1-3.4-.3-5.3-.4l-2.8,4.1Z"/>
        <path class="cls-2" d="M181.9,259.7h4.7l2.1-4.5c-1.5,0-3.2,0-5.1,0l-1.7,4.5Z"/>
        <path class="cls-2" d="M193.4,259.7h4l2.9-4.2c-1.4,0-2.8-.2-4.4-.3l-2.5,4.5Z"/>
        <path class="cls-2" d="M152,259.7h2v-4.2c-2.1,0-3.7,0-4.5,0-.8,0-2.4,0-4.5,0v4.2h6.9Z"/>
        <path class="cls-2" d="M166.2,255.3l-.6,4.3h5l.8-4.4c-1.7,0-3.5,0-5.2,0Z"/>
        <path class="cls-2" d="M211.4,256.4c-1.1-.1-2.2-.2-3.5-.3l-2.7,3.6h3.1l3.1-3.3Z"/>
        <path class="cls-2" d="M155.1,255.4v4.2h4.1l.3-4.3c-1.6,0-3.1,0-4.4,0Z"/>
        <path class="cls-2" d="M212.7,256.5l-3,3.2h4.5l3.1-2.7c-1.2-.2-2.8-.3-4.7-.5Z"/>
        <path class="cls-2" d="M189.8,255.2l-2.1,4.5h4.6l2.5-4.5c-.2,0-.4,0-.6,0-.3,0-1.9,0-4.3,0Z"/>
        <path class="cls-2" d="M171.6,259.7h3.8l1.3-4.4c-1.4,0-2.9,0-4.3,0l-.8,4.4Z"/>
        <path class="cls-2" d="M176.4,259.7h4.4l1.7-4.5c-1.5,0-3.1,0-4.8,0l-1.3,4.4Z"/>
        <polygon class="cls-2" points="215.2 267.3 215.2 260.9 149.6 260.9 84 260.9 84 267.3 149.6 267.3 215.2 267.3"/>
        <polygon class="cls-2" points="149.6 268.5 69.4 268.5 55.6 276.1 149.6 276.1 243.6 276.1 229.8 268.5 149.6 268.5"/>
      </g>
      <path class="cls-3" d="M669.3,231.9c-1.7,1.5-2.7,3.6-2.9,6v51c.4,2.7,1.3,4.9,3.1,6.5,1.5,1.3,3.3,2.3,5.6,2.3h.9c2.7-.2,4.6-1.1,6.3-2.9,1.5-1.7,2.5-3.8,2.5-6.5v-49.7c-.2-2.5-1.1-4.6-2.7-6.5-1.5-1.7-3.8-2.7-6.3-2.7-2.7,0-4.7.9-6.5,2.5M720.1,249.1c2.3-1.1,4.4-1.7,7.3-1.7s5.1.6,7.1,1.7c2.3,1.1,4,3.1,5.6,6.3h-25.6c1.6-3,3.4-4.9,5.7-6.3M714,231.9c-4.2,1.7-7.8,4.4-10.9,7.6-3.1,3.1-5.6,6.9-7.3,10.9-1.7,4.2-2.7,8.4-2.7,13s.9,8.9,2.7,13.2c1.7,4.2,4.2,8,7.6,11.1,3.1,3.1,6.9,5.6,10.9,7.6,4.2,1.7,8.4,2.7,13,2.5,3.6,0,6.7-.4,9.8-1.3s6-2.3,8.4-4.2c1.3-1.5,2.3-3.1,2.5-4.9.2-1.7,0-3.6-.6-5.1s-1.7-2.9-3.3-3.8c-1.5-1.1-3.1-1.5-5.1-1.7-1.1,0-2,.2-2.7.4-.9.2-1.5.6-2.5.9-.9.4-1.7.6-2.7.9-1.1.2-2.3.4-3.8.4-5.6,0-9.8-2.7-13-8h37.7c2.7,0,4.9-.6,6.9-2,1.7-1.3,2.7-3.3,2.7-5.8,0-4.4-.9-8.9-2.9-13-1.7-4-4.4-7.8-7.6-10.9-3.1-3.1-6.9-5.6-10.9-7.6-4.2-1.7-8.4-2.9-13-2.9-4.5-.1-8.9.8-13.2,2.8M788.8,231.9c-4.2,1.7-7.8,4.4-10.9,7.6-3.1,3.1-5.6,6.7-7.6,10.9-1.7,4.2-2.7,8.4-2.7,13s.9,8.9,2.7,13.2c1.7,4.2,4.2,7.8,7.3,10.9,3.1,3.1,6.7,5.6,10.9,7.3s8.4,2.7,13.4,2.7,9.2-.9,13.2-2.5c4-1.7,7.6-4.2,10.9-7.6.6-.9,1.3-1.7,1.7-2.9.4-1.1.4-2.3.4-3.3s-.2-2.3-.6-3.3-1.1-2-2-2.7c-1.7-1.7-3.8-2.9-6.5-2.9s-4.9.9-6.5,2.9c-3.1,2.7-6.5,4-10.7,4s-4.2-.2-6-1.1-3.6-2-5.1-3.6c-1.5-1.5-2.7-3.1-3.6-5.1-.9-2-1.3-4-1.3-6.3s.4-4,1.3-6c.9-1.7,2-3.6,3.6-4.9,1.5-1.5,3.1-2.7,5.1-3.6,2-.9,4-1.3,6.3-1.3,4,0,7.6,1.3,10.5,4,1.7,1.7,3.8,2.7,6.5,2.5,2.7,0,4.9-.9,6.5-2.5,1.7-1.5,2.7-3.6,2.7-6,.2-2.5-.6-4.4-2.3-6.3-6.7-6.7-14.5-9.8-24.1-9.8-4.4-.2-8.9.7-13.2,2.7M948.9,277.8c-1.7-.9-3.6-2-5.1-3.3-1.5-1.3-2.7-3.1-3.6-4.9-.9-2-1.3-4-1.3-6.3s.4-4,1.3-6c.9-2,2-3.6,3.6-5.1s3.1-2.7,5.1-3.6c1.7-.9,3.8-1.3,6-1.3s4,.4,6,1.3c2,.9,3.6,2,5.1,3.6s2.7,3.1,3.6,5.1c.9,2,1.3,4,1.3,6s-.4,4.4-1.3,6.3c-.9,2-2,3.6-3.3,5.1-1.3,1.3-3.1,2.5-4.9,3.3-2,.9-4,1.1-6.3,1.1s-4.1-.4-6.2-1.3M955,229c-7.1,0-13.4,1.7-18.9,5.6s-9.8,8.6-12.4,14.9c-.9,2.3-1.7,4.4-2.3,6.7-.4,2.3-.6,4.6-.6,7.1s.2,4.9.6,7.1c.4,2.3,1.3,4.4,2.3,6.7,2.7,6,6.9,10.9,12.4,14.7,5.6,3.8,11.8,5.8,18.9,5.8s5.3-.2,7.8-.9c2.5-.6,4.6-1.3,6.9-2.5.4-.2.6-.4,1.1-.6.4-.2.9-.4,1.3-.6,2,3.1,4.6,4.4,8,4.4s4.4-.9,6.5-2.7c1.7-1.5,2.7-3.6,2.9-6v-26.5c0-4-.9-7.8-2.3-11.3-1.5-4-3.6-7.3-6.5-10.5-2.7-3.1-5.8-5.6-9.6-7.6-3.8-2-7.8-3.1-12-3.6-.6,0-1.3-.2-2-.2-.1.1-2.3.1-2.3.1ZM669.3,210.5c-2,1.5-2.9,3.6-2.9,6s.9,5.3,2.7,6.9c1.7,1.5,4,2.5,6.7,2.7,2.5,0,4.4-.9,6.3-2.7,1.7-1.7,2.7-4,2.7-6.5s-.9-4.6-2.7-6.5c-1.7-1.7-4-2.7-6.5-2.7s-4.5,1-6.3,2.8M856.5,276.9c-1.7-1.7-2.7-4-2.7-6.5s.6-4,2-5.8c1.3-1.5,3.1-2.7,5.1-3.3l12.7,11.3-4,4.4c-1.7,1.7-4,2.7-6.5,2.7-2.6-.2-4.8-1-6.6-2.9M858.1,236.9c-1.3-1.5-2-3.1-2-4.6s.6-3.6,2-5.1c1.3-1.3,3.1-2.3,4.9-2.3s3.6.6,5.1,2.3c1.3,1.3,2.3,3.1,2.3,5.1s-.6,3.6-2.3,4.9c-1.3,1.3-3.1,2-5.1,2s-3.8-.7-4.9-2.3M853.6,209.3c-3.1,1.3-5.8,3.1-8,5.3s-4,4.9-5.3,7.8c-1.3,3.1-2,6.3-2,9.6s.6,6.7,2,9.6c1.3,2.9,3.1,5.6,5.3,7.8-3.1,2.9-5.3,6-6.9,9.4-1.5,3.3-2.3,6.9-2.5,10.5,0,3.6.4,6.9,1.5,10.3s2.9,6.3,5.1,8.9,5.1,4.6,8.4,6.5c3.3,1.5,7.1,2.5,11.3,2.5s6.9-.6,10-1.7,5.8-2.9,8.2-5.1l5.6-6.5,13.2,11.3c1.7,1.5,3.8,2.5,6.3,2.3,2.5,0,4.4-1.1,6.3-2.9,1.5-1.7,2.3-4,2.3-6.5-.2-2.5-1.1-4.4-2.9-6l-13.4-11.3,7.1-8c1.5-1.7,2.5-4,2.3-6.5,0-2.5-1.1-4.4-2.9-6s-3.8-2.5-6.3-2.3c-2.5,0-4.4,1.1-6,2.9l-7.3,8.2-7.6-6.7c.4-.4.9-.9,1.5-1.3.6-.4,1.1-.9,1.7-1.3,3.8-4,6-8.4,6.7-13.2.6-4.9,0-9.4-1.7-13.8-1.7-4.2-4.6-8-8.4-10.9-4-2.9-8.4-4.4-13.8-4.4-3.6-.3-7,.2-9.9,1.5"/>
      <path class="cls-4" d="M1276.6,299.1H3.4c-1.9,0-3.4-.3-3.4-.8s1.5-.8,3.4-.8h1273.2c1.9,0,3.4.3,3.4.8s-1.5.8-3.4.8"/>
    </g>
  </g>
</svg>